# Blender 4.4.3
# www.blender.org
mtllib grass1.mtl
o Plane
v -0.962175 0.319489 -0.039812
v -0.756843 0.319489 -0.113658
v -0.960587 0.319489 -0.075903
v -0.790237 0.319489 -0.139416
v -0.846453 0.830365 0.079803
v -0.853464 0.819774 0.106448
v -0.682560 0.785290 0.064744
v -0.704306 0.802443 0.043538
v -0.648097 1.165019 0.293954
v -0.654425 1.153216 0.307935
v -0.539048 1.140251 0.289396
v -0.552032 1.155016 0.277699
v -0.445496 1.350954 0.751117
v -0.841888 0.319489 -0.113953
v -0.635464 0.319489 -0.260729
v -0.851402 0.319489 -0.154794
v -0.680849 0.319489 -0.279076
v -0.723953 0.906063 -0.064954
v -0.723455 0.893769 -0.032976
v -0.545461 0.853741 -0.133054
v -0.576403 0.873652 -0.149956
v -0.403707 1.282471 0.096217
v -0.406407 1.268771 0.113824
v -0.283236 1.253722 0.057010
v -0.301409 1.270860 0.047996
v -0.090230 1.516770 0.483629
v -1.083079 0.319489 -0.170243
v -0.842555 0.319489 -0.090857
v -1.055808 0.319489 -0.202098
v -0.854654 0.319489 -0.138292
v -1.023883 0.909134 -0.019767
v -1.049353 0.896840 -0.000425
v -0.863294 0.856813 0.083713
v -0.868002 0.876723 0.048771
v -1.089392 1.316386 0.271667
v -1.105178 1.302686 0.279919
v -0.986448 1.287638 0.345511
v -0.989949 1.304776 0.325530
v -1.265499 1.516770 0.687496
v -0.997488 0.319489 -0.327506
v -0.920692 0.319489 -0.108224
v -0.944413 0.319489 -0.301912
v -0.892968 0.319489 -0.143550
v -1.006708 0.867083 -0.209858
v -1.035016 0.855806 -0.217559
v -0.992135 0.819088 -0.035221
v -0.969362 0.837352 -0.058186
v -1.353355 1.246256 -0.104122
v -1.368184 1.233689 -0.110984
v -1.349473 1.219884 0.012028
v -1.336902 1.235605 -0.001693
v -1.731386 1.417761 0.149939
v -0.890863 0.319489 -0.366624
v -1.002784 0.319489 -0.139407
v -0.863090 0.319489 -0.335205
v -0.954131 0.319489 -0.144822
v -1.037204 0.952750 -0.315532
v -1.052833 0.940457 -0.343434
v -1.161920 0.900429 -0.170816
v -1.126663 0.920340 -0.170641
v -1.334717 1.284826 -0.430323
v -1.340705 1.271126 -0.447099
v -1.422103 1.256077 -0.338594
v -1.401829 1.273215 -0.339295
v -1.791269 1.516770 -0.645451
v -0.817517 0.319489 -0.410519
v -1.042371 0.319489 -0.282209
v -0.811989 0.319489 -0.368016
v -0.998076 0.319489 -0.258938
v -0.903540 0.945148 -0.464135
v -0.900799 0.932583 -0.496708
v -1.091994 0.891670 -0.413004
v -1.062242 0.912021 -0.392671
v -1.151025 1.341282 -0.752881
v -1.146490 1.327279 -0.770514
v -1.277534 1.311898 -0.725243
v -1.259966 1.329415 -0.714229
v -1.357519 1.543251 -1.172663
v -0.716866 0.319489 -0.232469
v -0.870557 0.319489 -0.433797
v -0.757361 0.319489 -0.221575
v -0.887355 0.319489 -0.387815
v -0.716676 0.960135 -0.418551
v -0.684733 0.947842 -0.420134
v -0.790789 0.907814 -0.594631
v -0.806632 0.927725 -0.563134
v -0.453112 1.309830 -0.679138
v -0.435424 1.296130 -0.677037
v -0.496381 1.281081 -0.798211
v -0.504774 1.298220 -0.779742
v -0.139864 1.516770 -1.103795
v -0.973855 0.319489 -0.182624
v -0.832713 0.319489 -0.340912
v -0.838958 0.319489 -0.127468
v -0.865918 0.319489 -0.312871
v -0.688040 0.819417 -0.203766
v -0.662723 0.808502 -0.190914
v -0.667593 0.772966 -0.372136
v -0.693681 0.790642 -0.354838
v -0.384750 1.190822 -0.260983
v -0.372042 1.178660 -0.251571
v -0.365644 1.165299 -0.371825
v -0.380250 1.180514 -0.361287
v 0.051086 1.382432 -0.508160
v -0.734062 0.319489 -0.301339
v -0.787757 0.319489 -0.153937
v -0.912377 0.319489 -0.316578
v -0.780026 0.319489 -0.194916
v -0.932799 0.819091 -0.137390
v -0.959426 0.808618 -0.131623
v -0.846048 0.774519 0.000304
v -0.837108 0.791481 -0.028369
v -1.085156 1.186463 0.016193
v -1.100315 1.174792 0.016884
v -1.032248 1.161973 0.110259
v -1.027760 1.176572 0.093570
v -1.343360 1.388147 0.310429
v -0.864812 0.319489 -0.130044
v -0.716122 0.319489 -0.271016
v -0.823248 0.319489 -0.126649
v -0.871846 0.821792 -0.295810
v -0.880372 0.811320 -0.321686
v -0.999695 0.777221 -0.195111
v -0.970243 0.794183 -0.189224
v -1.085523 1.170209 -0.425156
v -1.087798 1.158538 -0.440159
v -1.173529 1.145719 -0.362685
v -1.156462 1.160318 -0.359969
v -1.337782 1.397322 -0.627594
v -0.821851 0.319489 -0.055592
v -0.960748 0.319489 -0.220351
v -0.855341 0.319489 -0.044648
v -0.769761 0.825432 -0.154571
v -0.742653 0.814959 -0.157287
v -0.840367 0.780860 -0.301200
v -0.852496 0.797822 -0.273724
v -0.584735 1.175998 -0.335961
v -0.569596 1.164328 -0.334931
v -0.626655 1.151508 -0.435412
v -0.633003 1.166107 -0.419339
v -0.305985 1.383310 -0.558347
vn -0.0000 -1.0000 -0.0000
vn 0.0825 -0.5539 0.8285
vn -0.2549 0.3575 -0.8985
vn 0.2455 -0.3503 0.9039
vn 0.6687 0.1634 -0.7254
vn -0.9663 0.2404 -0.0919
vn 0.8232 0.4347 -0.3652
vn 0.7390 0.1209 -0.6628
vn -0.8594 0.5113 -0.0003
vn -0.0877 0.5753 -0.8132
vn -0.8069 0.5778 0.1226
vn 0.0303 0.9211 -0.3880
vn -0.0343 -0.9066 0.4207
vn 0.3000 -0.5599 0.7723
vn -0.5118 0.2611 -0.8184
vn 0.5045 -0.2504 0.8263
vn 0.4435 0.1300 -0.8868
vn -0.9697 0.1813 0.1639
vn 0.6928 0.4303 -0.5787
vn 0.5088 0.0746 -0.8576
vn -0.7864 0.5608 0.2591
vn -0.3004 0.5820 -0.7557
vn -0.7820 0.5443 0.3036
vn -0.1102 0.8875 -0.4475
vn 0.1165 -0.8681 0.4825
vn -0.4459 -0.5520 0.7046
vn 0.3559 0.2813 -0.8912
vn -0.3666 -0.2707 0.8901
vn 0.9799 0.0894 -0.1783
vn -0.7043 0.2411 -0.6677
vn 0.7990 0.5184 0.3046
vn 0.9659 0.2573 0.0292
vn -0.6648 0.3608 -0.6541
vn 0.4328 0.5714 -0.6973
vn -0.6969 0.4846 -0.5287
vn 0.2784 0.9060 -0.3187
vn -0.3039 -0.8874 0.3466
vn -0.7437 -0.6673 0.0396
vn 0.9520 0.1667 -0.2567
vn -0.9515 -0.1478 0.2700
vn 0.7546 0.0075 0.6561
vn 0.3466 0.2026 -0.9159
vn 0.4694 0.3370 0.8162
vn 0.4951 0.3456 0.7971
vn 0.1130 0.3610 -0.9257
vn 0.7308 0.6810 -0.0465
vn -0.2039 0.6435 -0.7378
vn 0.4271 0.9038 0.0254
vn -0.4678 -0.8834 -0.0280
vn -0.5631 -0.6510 -0.5091
vn 0.8450 0.2397 0.4781
vn -0.8422 -0.2283 -0.4884
vn 0.0476 0.0616 0.9970
vn 0.7635 0.2253 -0.6053
vn -0.3566 0.4553 0.8158
vn -0.1910 0.2996 0.9348
vn 0.6951 0.4221 -0.5819
vn 0.5557 0.6689 0.4936
vn 0.5664 0.5277 -0.6331
vn 0.2974 0.8946 0.3334
vn -0.3190 -0.8764 -0.3608
vn -0.1879 -0.6370 -0.7476
vn 0.4358 0.2204 0.8727
vn -0.4276 -0.2090 -0.8795
vn -0.5305 0.1381 0.8364
vn 0.9896 0.1310 -0.0587
vn -0.7606 0.5111 0.4003
vn -0.6610 0.2364 0.7122
vn 0.8781 0.4636 -0.1181
vn 0.1913 0.6539 0.7321
vn 0.8485 0.4984 -0.1776
vn 0.0478 0.9091 0.4139
vn -0.0514 -0.8908 -0.4514
vn 0.6843 -0.6814 -0.2596
vn -0.8040 0.2403 0.5439
vn 0.8121 -0.2285 -0.5369
vn -0.9202 0.0135 -0.3912
vn 0.2081 0.2728 0.9393
vn -0.7280 0.3051 -0.6140
vn -0.7631 0.2838 -0.5806
vn 0.2334 0.4626 0.8553
vn -0.6679 0.6971 0.2606
vn 0.4269 0.6480 0.6307
vn -0.4310 0.8946 0.1181
vn 0.4688 -0.8741 -0.1273
vn -0.0000 1.0000 -0.0000
vn 0.7893 -0.6054 0.1022
vn -0.9445 0.3221 0.0640
vn 0.8330 -0.4051 0.3768
vn -0.5733 0.1453 -0.8064
vn 0.3703 -0.2495 -0.8948
vn -0.4063 0.2236 -0.8860
vn -0.3726 0.2862 -0.8828
vn -0.2901 0.3725 0.8815
vn -0.7774 0.6220 -0.0932
vn 0.1128 0.6791 0.7253
vn -0.4522 0.8850 -0.1112
vn 0.4897 -0.8633 0.1220
vn -0.7284 -0.4828 0.4861
vn 0.6979 0.2889 -0.6553
vn -0.7080 -0.2781 0.6492
vn 0.9698 0.0372 0.2412
vn -0.3611 0.2992 -0.8832
vn 0.6901 0.4425 0.5727
vn 0.8497 0.2804 0.4466
vn -0.2834 0.2661 -0.9213
vn 0.7146 0.5035 -0.4856
vn -0.4335 0.5194 -0.7364
vn 0.4385 0.8730 -0.2136
vn -0.4725 -0.8514 0.2276
vn -0.5271 -0.5423 -0.6543
vn 0.7270 0.2813 0.6264
vn -0.7217 -0.2710 -0.6369
vn -0.1501 0.0894 0.9846
vn 0.8600 0.2409 -0.4499
vn -0.5022 0.4498 0.7386
vn -0.3384 0.2517 0.9067
vn 0.8362 0.3584 -0.4151
vn 0.5244 0.5621 0.6396
vn 0.7689 0.4429 -0.4612
vn 0.3352 0.8065 0.4871
vn -0.3533 -0.7779 -0.5197
vn 0.7452 -0.5583 -0.3647
vn -0.7705 0.2790 0.5731
vn 0.7783 -0.2704 -0.5667
vn -0.9056 0.1612 -0.3924
vn 0.2436 0.1620 0.9563
vn -0.5903 0.4677 -0.6579
vn -0.8018 0.2678 -0.5342
vn 0.2213 0.3531 0.9090
vn -0.7303 0.5772 0.3655
vn 0.3078 0.4722 0.8260
vn -0.4892 0.8530 0.1820
vn 0.5253 -0.8288 -0.1926
vt 0.149393 0.524670
vt 0.149449 0.524670
vt 0.155483 0.524670
vt 0.156666 0.524670
vt 0.153244 0.711149
vt 0.159297 0.698295
vt 0.164380 0.830605
vt 0.160293 0.835437
vt 0.153492 0.715097
vt 0.158527 0.704689
vt 0.163920 0.836108
vt 0.167694 0.909143
vt 0.160518 0.839837
vt 0.153654 0.524670
vt 0.153317 0.524670
vt 0.159357 0.524670
vt 0.160965 0.524670
vt 0.157848 0.738730
vt 0.164153 0.723810
vt 0.173441 0.872900
vt 0.169078 0.878510
vt 0.157831 0.743312
vt 0.163057 0.731231
vt 0.172797 0.879289
vt 0.180277 0.970950
vt 0.169174 0.883616
vt 0.145111 0.524670
vt 0.146077 0.524670
vt 0.153201 0.524670
vt 0.153630 0.524670
vt 0.146305 0.739875
vt 0.152895 0.724955
vt 0.148533 0.885542
vt 0.144328 0.891152
vt 0.147207 0.744457
vt 0.152729 0.732376
vt 0.148409 0.891930
vt 0.138649 0.970950
vt 0.144887 0.896258
vt 0.148142 0.524670
vt 0.150022 0.524670
vt 0.151844 0.524670
vt 0.150862 0.524670
vt 0.146813 0.724579
vt 0.148332 0.710893
vt 0.135675 0.860288
vt 0.135012 0.865433
vt 0.147816 0.728783
vt 0.149139 0.717701
vt 0.136120 0.866148
vt 0.122148 0.934045
vt 0.135538 0.870117
vt 0.151919 0.524670
vt 0.152903 0.524670
vt 0.149678 0.524670
vt 0.147955 0.524670
vt 0.146182 0.756133
vt 0.142318 0.741212
vt 0.133103 0.873778
vt 0.135986 0.879388
vt 0.146736 0.760715
vt 0.143567 0.748634
vt 0.133821 0.880166
vt 0.120027 0.970950
vt 0.136198 0.884494
vt 0.154517 0.524670
vt 0.154713 0.524670
vt 0.148122 0.524670
vt 0.146553 0.524670
vt 0.151567 0.753198
vt 0.144795 0.737947
vt 0.138223 0.894585
vt 0.142865 0.900319
vt 0.151470 0.757881
vt 0.145849 0.745533
vt 0.138845 0.901114
vt 0.135390 0.980821
vt 0.142704 0.905538
vt 0.158082 0.524670
vt 0.156648 0.524670
vt 0.152043 0.524670
vt 0.152638 0.524670
vt 0.159220 0.758885
vt 0.155464 0.743965
vt 0.165891 0.883099
vt 0.168050 0.888708
vt 0.158089 0.763467
vt 0.154902 0.751387
vt 0.165594 0.889486
vt 0.178519 0.970950
vt 0.167424 0.893815
vt 0.148979 0.524670
vt 0.153757 0.524670
vt 0.152802 0.524670
vt 0.153979 0.524670
vt 0.160000 0.706947
vt 0.159827 0.693701
vt 0.170522 0.839941
vt 0.170295 0.844921
vt 0.159103 0.711015
vt 0.158903 0.700290
vt 0.170005 0.845613
vt 0.185282 0.920877
vt 0.169845 0.849455
vt 0.151157 0.524670
vt 0.155845 0.524670
vt 0.155571 0.524670
vt 0.149490 0.706990
vt 0.153506 0.694280
vt 0.146911 0.838701
vt 0.144500 0.843480
vt 0.150434 0.710894
vt 0.153823 0.700603
vt 0.147070 0.844143
vt 0.135892 0.923007
vt 0.145037 0.847830
vt 0.157473 0.524670
vt 0.158108 0.524670
vt 0.154314 0.524670
vt 0.152842 0.524670
vt 0.152291 0.707998
vt 0.148064 0.695288
vt 0.141907 0.832643
vt 0.144944 0.837421
vt 0.152592 0.711901
vt 0.149107 0.701610
vt 0.142512 0.838085
vt 0.136089 0.926427
vt 0.145024 0.841771
vt 0.154363 0.524670
vt 0.153177 0.524670
vt 0.149444 0.524670
vt 0.157168 0.709354
vt 0.153707 0.696644
vt 0.161277 0.834801
vt 0.163298 0.839579
vt 0.156208 0.713257
vt 0.153278 0.702966
vt 0.161052 0.840243
vt 0.172635 0.921204
vt 0.162762 0.843929
s 1
usemtl AllColors_Material
f 1/1/1 3/2/1 4/3/1 2/4/1
f 6/5/2 7/6/2 11/7/2 10/8/2
f 4/3/3 3/2/3 5/9/3 8/10/3
f 1/1/4 2/4/4 7/6/4 6/5/4
f 2/4/5 4/3/5 8/10/5 7/6/5
f 3/2/6 1/1/6 6/5/6 5/9/6
f 11/7/7 12/11/7 13/12/7
f 7/6/8 8/10/8 12/11/8 11/7/8
f 5/9/9 6/5/9 10/8/9 9/13/9
f 8/10/10 5/9/10 9/13/10 12/11/10
f 9/13/11 10/8/11 13/12/11
f 12/11/12 9/13/12 13/12/12
f 10/8/13 11/7/13 13/12/13
f 14/14/1 16/15/1 17/16/1 15/17/1
f 19/18/14 20/19/14 24/20/14 23/21/14
f 17/16/15 16/15/15 18/22/15 21/23/15
f 14/14/16 15/17/16 20/19/16 19/18/16
f 15/17/17 17/16/17 21/23/17 20/19/17
f 16/15/18 14/14/18 19/18/18 18/22/18
f 24/20/19 25/24/19 26/25/19
f 20/19/20 21/23/20 25/24/20 24/20/20
f 18/22/21 19/18/21 23/21/21 22/26/21
f 21/23/22 18/22/22 22/26/22 25/24/22
f 22/26/23 23/21/23 26/25/23
f 25/24/24 22/26/24 26/25/24
f 23/21/25 24/20/25 26/25/25
f 27/27/1 29/28/1 30/29/1 28/30/1
f 32/31/26 33/32/26 37/33/26 36/34/26
f 30/29/27 29/28/27 31/35/27 34/36/27
f 27/27/28 28/30/28 33/32/28 32/31/28
f 28/30/29 30/29/29 34/36/29 33/32/29
f 29/28/30 27/27/30 32/31/30 31/35/30
f 37/33/31 38/37/31 39/38/31
f 33/32/32 34/36/32 38/37/32 37/33/32
f 31/35/33 32/31/33 36/34/33 35/39/33
f 34/36/34 31/35/34 35/39/34 38/37/34
f 35/39/35 36/34/35 39/38/35
f 38/37/36 35/39/36 39/38/36
f 36/34/37 37/33/37 39/38/37
f 40/40/1 42/41/1 43/42/1 41/43/1
f 45/44/38 46/45/38 50/46/38 49/47/38
f 43/42/39 42/41/39 44/48/39 47/49/39
f 40/40/40 41/43/40 46/45/40 45/44/40
f 41/43/41 43/42/41 47/49/41 46/45/41
f 42/41/42 40/40/42 45/44/42 44/48/42
f 50/46/43 51/50/43 52/51/43
f 46/45/44 47/49/44 51/50/44 50/46/44
f 44/48/45 45/44/45 49/47/45 48/52/45
f 47/49/46 44/48/46 48/52/46 51/50/46
f 48/52/47 49/47/47 52/51/47
f 51/50/48 48/52/48 52/51/48
f 49/47/49 50/46/49 52/51/49
f 53/53/1 55/54/1 56/55/1 54/56/1
f 58/57/50 59/58/50 63/59/50 62/60/50
f 56/55/51 55/54/51 57/61/51 60/62/51
f 53/53/52 54/56/52 59/58/52 58/57/52
f 54/56/53 56/55/53 60/62/53 59/58/53
f 55/54/54 53/53/54 58/57/54 57/61/54
f 63/59/55 64/63/55 65/64/55
f 59/58/56 60/62/56 64/63/56 63/59/56
f 57/61/57 58/57/57 62/60/57 61/65/57
f 60/62/58 57/61/58 61/65/58 64/63/58
f 61/65/59 62/60/59 65/64/59
f 64/63/60 61/65/60 65/64/60
f 62/60/61 63/59/61 65/64/61
f 66/66/1 68/67/1 69/68/1 67/69/1
f 71/70/62 72/71/62 76/72/62 75/73/62
f 69/68/63 68/67/63 70/74/63 73/75/63
f 66/66/64 67/69/64 72/71/64 71/70/64
f 67/69/65 69/68/65 73/75/65 72/71/65
f 68/67/66 66/66/66 71/70/66 70/74/66
f 76/72/67 77/76/67 78/77/67
f 72/71/68 73/75/68 77/76/68 76/72/68
f 70/74/69 71/70/69 75/73/69 74/78/69
f 73/75/70 70/74/70 74/78/70 77/76/70
f 74/78/71 75/73/71 78/77/71
f 77/76/72 74/78/72 78/77/72
f 75/73/73 76/72/73 78/77/73
f 79/79/1 81/80/1 82/81/1 80/82/1
f 84/83/74 85/84/74 89/85/74 88/86/74
f 82/81/75 81/80/75 83/87/75 86/88/75
f 79/79/76 80/82/76 85/84/76 84/83/76
f 80/82/77 82/81/77 86/88/77 85/84/77
f 81/80/78 79/79/78 84/83/78 83/87/78
f 89/85/79 90/89/79 91/90/79
f 85/84/80 86/88/80 90/89/80 89/85/80
f 83/87/81 84/83/81 88/86/81 87/91/81
f 86/88/82 83/87/82 87/91/82 90/89/82
f 87/91/83 88/86/83 91/90/83
f 90/89/84 87/91/84 91/90/84
f 88/86/85 89/85/85 91/90/85
f 92/92/86 94/93/86 95/94/86 93/95/86
f 97/96/87 98/97/87 102/98/87 101/99/87
f 95/94/88 94/93/88 96/100/88 99/101/88
f 92/92/89 93/95/89 98/97/89 97/96/89
f 93/95/90 95/94/90 99/101/90 98/97/90
f 94/93/91 92/92/91 97/96/91 96/100/91
f 102/98/92 103/102/92 104/103/92
f 98/97/93 99/101/93 103/102/93 102/98/93
f 96/100/94 97/96/94 101/99/94 100/104/94
f 99/101/95 96/100/95 100/104/95 103/102/95
f 100/104/96 101/99/96 104/103/96
f 103/102/97 100/104/97 104/103/97
f 101/99/98 102/98/98 104/103/98
f 42/41/1 107/105/1 108/106/1 106/107/1
f 110/108/99 111/109/99 115/110/99 114/111/99
f 108/106/100 107/105/100 109/112/100 112/113/100
f 42/41/101 106/107/101 111/109/101 110/108/101
f 106/107/102 108/106/102 112/113/102 111/109/102
f 107/105/103 42/41/103 110/108/103 109/112/103
f 115/110/104 116/114/104 117/115/104
f 111/109/105 112/113/105 116/114/105 115/110/105
f 109/112/106 110/108/106 114/111/106 113/116/106
f 112/113/107 109/112/107 113/116/107 116/114/107
f 113/116/108 114/111/108 117/115/108
f 116/114/109 113/116/109 117/115/109
f 114/111/110 115/110/110 117/115/110
f 105/117/1 119/118/1 120/119/1 118/120/1
f 122/121/111 123/122/111 127/123/111 126/124/111
f 120/119/112 119/118/112 121/125/112 124/126/112
f 105/117/113 118/120/113 123/122/113 122/121/113
f 118/120/114 120/119/114 124/126/114 123/122/114
f 119/118/115 105/117/115 122/121/115 121/125/115
f 127/123/116 128/127/116 129/128/116
f 123/122/117 124/126/117 128/127/117 127/123/117
f 121/125/118 122/121/118 126/124/118 125/129/118
f 124/126/119 121/125/119 125/129/119 128/127/119
f 125/129/120 126/124/120 129/128/120
f 128/127/121 125/129/121 129/128/121
f 126/124/122 127/123/122 129/128/122
f 130/130/1 132/131/1 92/92/1 131/132/1
f 134/133/123 135/134/123 139/135/123 138/136/123
f 92/92/124 132/131/124 133/137/124 136/138/124
f 130/130/125 131/132/125 135/134/125 134/133/125
f 131/132/126 92/92/126 136/138/126 135/134/126
f 132/131/127 130/130/127 134/133/127 133/137/127
f 139/135/128 140/139/128 141/140/128
f 135/134/129 136/138/129 140/139/129 139/135/129
f 133/137/130 134/133/130 138/136/130 137/141/130
f 136/138/131 133/137/131 137/141/131 140/139/131
f 137/141/132 138/136/132 141/140/132
f 140/139/133 137/141/133 141/140/133
f 138/136/134 139/135/134 141/140/134
