# Blender 4.4.3
# www.blender.org
mtllib kloda.mtl
o Cylinder.009
v -5.353662 -0.391241 -3.339629
v -3.186623 -0.394810 -3.517388
v -5.344369 -1.058349 -2.915530
v -2.924137 -1.291994 -3.100541
v -5.594801 -1.096674 -2.072764
v -3.186622 -1.296526 -2.067278
v -5.455368 -0.615675 -1.422146
v -3.186622 -0.623310 -1.400340
v -5.524815 0.313221 -1.475566
v -2.989758 0.437800 -1.321969
v -5.429295 0.719483 -2.308526
v -3.186622 0.818291 -2.315599
v -5.396236 0.394765 -3.109134
v -3.186623 0.501117 -3.208591
v 0.040407 -1.103453 -3.118245
v -0.202667 -0.298934 -3.454455
v -0.202667 -1.133969 -2.111578
v -0.202667 -0.510536 -1.493960
v -0.020361 0.472106 -1.421384
v -0.202667 0.824460 -2.341536
v -0.202667 0.530741 -3.168494
v 2.696854 -1.080388 -2.967799
v 2.451588 -0.382721 -3.347649
v 2.447567 -1.135014 -2.135496
v 2.448990 -0.561903 -1.567771
v 2.638514 0.261272 -1.526228
v 2.454414 0.638781 -2.333924
v 2.454097 0.370971 -3.087910
v -5.339329 -0.415718 -3.514933
v -5.339329 -1.215745 -3.006998
v -5.601814 -1.260837 -2.022298
v -5.470571 -0.692821 -1.256867
v -5.536192 0.416891 -1.319513
v -5.426824 0.896248 -2.302474
v -5.383076 0.515201 -3.241458
v -5.209671 -0.396547 -3.331737
v -5.200378 -1.063656 -2.907638
v -5.450811 -1.101981 -2.064871
v -5.311378 -0.620982 -1.414254
v -5.380824 0.307914 -1.467673
v -5.285305 0.714176 -2.300633
v -5.252246 0.389458 -3.101241
v -5.212057 -0.161886 -2.435215
v 2.705763 -1.215752 -3.054860
v 2.448956 -0.396595 -3.500631
v 2.448956 -1.278805 -2.081888
v 2.448956 -0.620152 -1.429378
v 2.641562 0.348321 -1.380296
v 2.448956 0.790265 -2.324838
v 2.448956 0.479952 -3.198514
v 2.575570 -1.083033 -2.967402
v 2.330305 -0.385366 -3.347251
v 2.326284 -1.137658 -2.135098
v 2.327707 -0.564548 -1.567373
v 2.517230 0.258627 -1.525830
v 2.333130 0.636136 -2.333526
v 2.332813 0.368327 -3.087512
v 2.281776 -0.175598 -2.532052
vn -0.5979 -0.0877 -0.7968
vn 0.0026 -0.0737 -0.9973
vn 0.0174 -0.8449 -0.5346
vn -0.5755 -0.6758 -0.4605
vn 0.0272 -0.9348 0.3542
vn -0.7252 -0.6573 0.2050
vn 0.0391 -0.4186 0.9073
vn -0.5738 -0.3313 0.7490
vn 0.0238 0.5352 0.8444
vn -0.6545 0.4205 0.6284
vn 0.0083 0.9998 0.0192
vn -0.5994 0.8003 -0.0145
vn 0.0004 -0.8255 -0.5643
vn 0.0082 -0.9272 0.3745
vn 0.0089 0.6945 -0.7194
vn -0.5975 0.5357 -0.5967
vn -0.8171 0.5501 0.1723
vn -0.7647 0.5978 -0.2404
vn -0.4975 0.8294 -0.2541
vn -0.6463 0.6973 0.3100
vn 0.0063 -0.0396 -0.9992
vn 0.0040 0.7075 -0.7067
vn 0.6144 0.5527 -0.5632
vn 0.5613 -0.0043 -0.8276
vn 0.0102 0.5426 0.8400
vn 0.0083 0.9998 0.0176
vn 0.0057 -0.4078 0.9131
vn 0.7822 0.1642 -0.6010
vn 0.7846 0.6118 -0.1006
vn 0.6175 0.7459 -0.2498
vn 0.6302 0.2857 -0.7220
vn 0.6786 0.3755 0.6313
vn 0.5908 0.8068 -0.0109
vn 0.5539 -0.7594 0.3413
vn 0.5789 -0.3726 0.7253
vn 0.7155 -0.5846 -0.3824
vn -0.8496 0.0454 0.5254
vn -0.7768 0.2996 -0.5538
vn -0.8143 -0.3059 -0.4932
vn -0.8214 -0.5637 -0.0868
vn -0.8563 -0.3804 0.3494
vn -0.6693 0.1296 0.7316
vn -0.9969 0.0061 -0.0782
vn -0.6226 -0.7796 -0.0677
vn -0.6290 -0.5385 0.5607
vn -0.5293 -0.4524 -0.7178
vn -0.5905 0.3632 -0.7206
vn 0.7957 0.1770 0.5793
vn 0.8114 0.4956 0.3099
vn 0.8501 -0.2780 -0.4473
vn 0.8122 -0.5719 -0.1155
vn 0.8348 -0.3883 0.3903
vn 0.4377 0.7596 0.4810
vn 0.6232 0.1050 0.7750
vn 0.9998 0.0215 0.0031
vn 0.4848 -0.4462 -0.7522
vn 0.6316 -0.7722 -0.0693
vn 0.6075 -0.5576 0.5657
vt 0.555437 0.534363
vt 0.554825 0.651748
vt 0.581076 0.666059
vt 0.578845 0.534363
vt 0.581209 0.651748
vt 0.580165 0.520050
vt 0.561511 0.651748
vt 0.563545 0.527207
vt 0.530464 0.662481
vt 0.531076 0.523628
vt 0.519331 0.651748
vt 0.517050 0.529592
vt 0.575560 0.827711
vt 0.576452 0.814457
vt 0.528611 0.651748
vt 0.528199 0.531978
vt 0.574240 0.534089
vt 0.575361 0.520432
vt 0.575517 0.528285
vt 0.574395 0.541940
vt 0.552020 0.814457
vt 0.527745 0.814457
vt 0.529231 0.959045
vt 0.554878 0.959045
vt 0.529460 0.824398
vt 0.519151 0.814457
vt 0.558211 0.814457
vt 0.559715 0.959046
vt 0.576483 0.958969
vt 0.576561 0.952356
vt 0.559792 0.952434
vt 0.533082 0.969549
vt 0.520151 0.959045
vt 0.580690 0.959045
vt 0.561419 0.959045
vt 0.578845 0.973049
vt 0.554721 0.533582
vt 0.561288 0.528036
vt 0.534109 0.524249
vt 0.522222 0.529458
vt 0.531723 0.531261
vt 0.186309 0.199953
vt 0.151096 0.258648
vt 0.145811 0.477769
vt 0.177256 0.396550
vt 0.534264 0.532101
vt 0.561443 0.535888
vt 0.531879 0.539112
vt 0.522378 0.537310
vt 0.554876 0.541433
vt 0.110997 0.143817
vt 0.113095 0.376154
vt 0.136551 0.023509
vt 0.169651 0.033095
vt 0.554472 0.959189
vt 0.574885 0.972563
vt 0.535629 0.969382
vt 0.524584 0.959343
vt 0.532420 0.959326
vt 0.171999 0.028248
vt 0.186918 0.202750
vt 0.154900 0.255218
vt 0.139309 0.014586
vt 0.535707 0.962769
vt 0.524661 0.952730
vt 0.532497 0.952713
vt 0.554549 0.952576
vt 0.574962 0.965949
vt 0.117011 0.157932
vt 0.176716 0.391265
vt 0.147102 0.458250
vt 0.115379 0.363826
s 1
usemtl Material.020
f 29/1/1 2/2/2 4/3/3 30/4/4
f 30/4/4 4/3/3 6/5/5 31/6/6
f 31/6/6 6/5/5 8/7/7 32/8/8
f 32/8/8 8/7/7 10/9/9 33/10/10
f 33/10/10 10/9/9 12/11/11 34/12/12
f 6/5/5 4/3/3 15/13/13 17/14/14
f 34/12/12 12/11/11 14/15/15 35/16/16
f 35/16/16 14/15/15 2/2/2 29/1/1
f 3/17/17 5/18/18 38/19/19 37/20/20
f 16/21/21 21/22/22 50/23/23 45/24/24
f 12/11/11 10/9/9 19/25/25 20/26/26
f 4/3/3 2/2/2 16/21/21 15/13/13
f 8/7/7 6/5/5 17/14/14 18/27/27
f 14/15/15 12/11/11 20/26/26 21/22/22
f 10/9/9 8/7/7 18/27/27 19/25/25
f 2/2/2 14/15/15 21/22/22 16/21/21
f 25/28/28 24/29/29 53/30/30 54/31/31
f 20/26/26 19/25/25 48/32/32 49/33/33
f 18/27/27 17/14/14 46/34/34 47/35/35
f 15/13/13 16/21/21 45/24/24 44/36/36
f 21/22/22 20/26/26 49/33/33 50/23/23
f 19/25/25 18/27/27 47/35/35 48/32/32
f 17/14/14 15/13/13 44/36/36 46/34/34
f 3/17/17 1/37/37 29/1/1 30/4/4
f 5/18/18 3/17/17 30/4/4 31/6/6
f 7/38/38 5/18/18 31/6/6 32/8/8
f 9/39/39 7/38/38 32/8/8 33/10/10
f 11/40/40 9/39/39 33/10/10 34/12/12
f 13/41/41 11/40/40 34/12/12 35/16/16
f 1/37/37 13/41/41 35/16/16 29/1/1
f 7/38/38 9/39/39 40/46/46 39/47/47
f 11/40/40 13/41/41 42/48/45 41/49/44
f 1/37/37 3/17/17 37/20/20 36/50/42
f 13/41/41 1/37/37 36/50/42 42/48/45
f 9/39/39 11/40/40 41/49/44 40/46/46
f 5/18/18 7/38/38 39/47/47 38/19/19
f 23/55/48 22/56/49 44/36/36 45/24/24
f 22/56/49 24/29/29 46/34/34 44/36/36
f 24/29/29 25/28/28 47/35/35 46/34/34
f 25/28/28 26/57/50 48/32/32 47/35/35
f 26/57/50 27/58/51 49/33/33 48/32/32
f 27/58/51 28/59/52 50/23/23 49/33/33
f 28/59/52 23/55/48 45/24/24 50/23/23
f 27/58/51 26/57/50 55/64/56 56/65/57
f 23/55/48 28/59/52 57/66/58 52/67/54
f 24/29/29 22/56/49 51/68/53 53/30/30
f 22/56/49 23/55/48 52/67/54 51/68/53
f 28/59/52 27/58/51 56/65/57 57/66/58
f 26/57/50 25/28/28 54/31/31 55/64/56
usemtl Material.022
f 36/42/42 43/43/43 41/44/44 42/45/45
f 41/44/44 43/43/43 39/51/47 40/52/46
f 39/51/47 43/43/43 38/53/19
f 43/43/43 36/42/42 37/54/20 38/53/19
f 51/60/53 52/61/54 58/62/55 53/63/30
f 53/63/30 58/62/55 54/69/31
f 58/62/55 52/61/54 57/70/58 56/71/57
f 54/69/31 58/62/55 56/71/57 55/72/56
