# Blender 4.4.3
# www.blender.org
o rock1
v 0.278152 0.378517 -0.842312
v 0.188697 0.000000 0.909867
v -0.920426 0.072648 0.187255
v -0.585925 -0.000000 -1.099886
v 0.089723 0.561408 0.821731
v -0.927270 0.294096 -0.508718
v -0.231566 0.489128 -1.115833
v 0.847532 0.175668 -0.029205
v 0.162737 0.899344 -0.222074
v -0.586579 0.587148 -0.880218
v -0.765584 0.420927 -0.812271
v 0.136627 -0.000000 -0.051264
v 0.000796 0.305640 1.024393
v -0.857905 0.373456 0.228921
v -0.793524 0.124122 -0.891128
v 0.305610 0.139520 -0.894173
v -0.117577 0.857104 -0.030058
v 0.343158 0.769734 -0.290526
v 0.694663 0.342451 -0.259573
v -0.600480 0.269384 -1.124222
v -0.267254 0.000000 1.008766
v 0.762735 0.000000 0.522554
v 0.064993 -0.000000 -1.086754
v -0.369717 -0.000000 -1.181604
v -0.829251 -0.000000 -0.727788
v 0.602956 0.000000 0.734826
v 0.871737 0.000000 0.099209
v -0.541547 -0.000000 -0.117023
v -0.760173 0.000000 0.509088
v -0.967160 -0.000000 -0.170685
v 0.638460 -0.000000 -0.481975
v 0.441026 0.702584 0.443702
v -0.774415 0.604457 -0.316480
v 0.593656 0.670837 -0.015664
v 0.166069 0.587708 -0.809672
v -0.277810 0.853427 -0.490208
v -0.212879 0.684183 -0.911483
v -0.704928 0.587957 0.131877
v -0.128345 0.456948 0.960536
v 0.203649 0.872285 0.116199
v -0.095360 0.259677 -1.182099
v -0.401387 0.265761 -1.208808
v -0.954826 0.261811 -0.149931
v 0.589495 0.440016 0.604308
v 0.809960 0.270825 0.334292
v -0.586900 0.138707 0.821555
v -0.091109 0.261696 -1.194810
v 0.286990 0.384550 -0.850630
v -0.408415 0.411883 0.914174
v -0.657875 0.417308 0.600674
v -0.227256 0.495804 -1.126813
v 0.173117 0.596096 -0.817651
v 0.705858 0.347568 -0.265247
v 0.859766 0.180560 -0.032382
v 0.603277 0.680270 -0.017138
v 0.164348 0.912782 -0.222804
v -0.777568 0.425339 -0.816812
v -0.805685 0.126701 -0.896528
v 0.690357 0.571967 0.228085
v 0.597867 0.447966 0.611409
v 0.095206 0.568382 0.831978
v -0.868627 0.381044 0.232260
v -0.784086 0.613941 -0.316002
v 0.208042 0.885070 0.117174
v -0.120632 0.870263 -0.028950
v -0.208763 0.694743 -0.918916
v -0.713299 0.598262 0.134608
v -0.128801 0.464886 0.971512
v 0.448697 0.712638 0.448576
v 0.649495 0.002278 -0.489508
v -0.370960 -0.002059 -1.194943
v -0.590939 -0.001636 -1.112371
v -0.605494 0.267748 -1.136708
v -0.977187 -0.008593 -0.167631
v -0.930928 0.064810 0.190716
v -0.240477 0.213639 1.065750
v -0.596618 0.136826 0.830813
v -0.270460 -0.003249 1.021528
v 0.003851 0.308112 1.037364
v 0.193197 -0.001954 0.922501
v 0.608202 -0.001427 0.747242
v -0.772027 -0.001003 0.515583
v -0.939142 0.300191 -0.511087
v -0.279438 0.866779 -0.491881
v -0.402464 0.265287 -1.222311
v -0.966727 0.268283 -0.149508
v 0.315235 0.137508 -0.903501
v 0.071696 -0.000721 -1.098511
v 0.821909 0.276889 0.336327
vn -0.0000 -1.0000 -0.0000
vn 0.5273 0.8300 -0.1819
vn -0.2403 0.7131 -0.6587
vn -0.2617 0.8809 -0.3943
vn -0.3074 0.8835 0.3535
vn 0.0480 -0.9903 0.1301
vn -0.7313 0.2210 0.6453
vn 0.0794 0.9074 0.4127
vn 0.3910 -0.9142 -0.1067
vn 0.2023 0.9710 0.1277
vn -0.6133 0.7336 -0.2927
vn -0.0215 -0.9942 0.1055
vn 0.8010 0.2134 -0.5593
vn 0.3664 -0.9117 0.1858
vn 0.3610 -0.9267 -0.1040
vn -0.5769 0.7263 -0.3737
vn -0.9960 0.0526 -0.0718
vn -0.9652 0.1735 0.1958
vn 0.4079 -0.8722 0.2701
vn 0.6872 0.6186 -0.3808
vn -0.9455 0.2738 -0.1764
vn -0.4496 -0.8189 0.3569
vn 0.4213 0.1961 -0.8855
vn 0.8151 0.1875 0.5481
vn 0.2756 -0.0231 0.9610
vn 0.9684 0.0045 0.2493
vn 0.9828 0.1760 0.0555
vn 0.6124 0.2342 -0.7551
vn -0.8040 0.5929 0.0440
vn -0.9607 -0.1430 -0.2378
vn -0.9523 -0.1036 -0.2870
vn -0.7547 -0.4322 -0.4935
vn -0.8837 0.1211 0.4521
vn -0.9844 0.0369 -0.1722
vn 0.9185 -0.1429 -0.3687
vn 0.3848 0.9085 -0.1632
vn -0.0480 -0.9922 -0.1152
vn 0.2204 -0.7365 0.6395
vn -0.7082 0.6579 -0.2562
vn -0.4923 0.8494 -0.1901
vn -0.4570 -0.8822 -0.1136
vn -0.0413 -0.9792 -0.1985
vn 0.7015 0.5631 -0.4367
vn 0.4167 0.8041 -0.4241
vn 0.9373 -0.3036 0.1709
vn -0.2064 0.9077 0.3653
vn 0.3820 -0.8910 0.2452
vn 0.1216 -0.9850 -0.1224
vn -0.3732 -0.9071 -0.1946
vn -0.2537 0.9549 -0.1544
vn 0.3087 -0.2403 -0.9203
vn -0.3267 0.5770 -0.7485
vn -0.7347 -0.1003 -0.6710
vn -0.6613 0.4748 -0.5807
vn -0.8142 0.2195 -0.5375
vn -0.6311 0.7298 0.2629
vn -0.9918 0.0371 0.1220
vn -0.4077 -0.0522 0.9116
vn -0.3796 0.9198 0.0993
vn -0.2468 -0.1720 -0.9537
vn 0.7696 0.2685 0.5793
vn -0.6373 0.7671 -0.0737
vn -0.4001 -0.8804 0.2546
vn 0.5550 0.7821 -0.2835
vn 0.3108 -0.9086 -0.2791
vn -0.0174 0.9969 -0.0768
vn -0.9271 -0.0163 0.3744
vn 0.0445 -0.9982 -0.0397
vn 0.5217 0.2572 0.8134
vn 0.3321 0.8346 -0.4394
vn 0.8592 0.4485 -0.2462
vn 0.7117 0.5476 -0.4400
vn 0.7314 0.4706 -0.4936
vn 0.1185 0.9277 -0.3541
vn -0.7735 0.6174 0.1430
vn -0.6905 0.6428 0.3317
vn -0.2385 0.9193 0.3130
vn 0.6951 0.6179 0.3676
vn 0.8827 0.4565 -0.1118
vn 0.7923 0.2361 -0.5626
vn 0.8722 0.1583 -0.4629
vn 0.0869 0.3242 -0.9420
vn 0.5397 0.4055 -0.7377
vn 0.4564 0.4825 -0.7476
vn -0.2595 0.4382 0.8606
vn -0.5662 0.1413 0.8121
vn -0.0324 0.3636 0.9310
vn 0.4470 0.4522 0.7718
vn 0.2469 0.5454 0.8010
vn -0.4001 0.9095 0.1127
vn 0.6937 -0.2957 -0.6567
vn 0.3871 -0.1031 0.9163
vn -0.7299 -0.6450 0.2263
vn 0.4326 0.6366 0.6384
vn -0.8171 0.5359 -0.2125
vn 0.3472 0.6620 -0.6643
vn -0.0855 0.9921 0.0919
vn -0.1241 0.9917 0.0351
vn -0.4466 0.8149 0.3695
vn 0.4753 0.8777 0.0603
vn 0.1594 -0.1686 -0.9727
vn 0.5910 0.7943 0.1409
vn -0.3675 -0.1204 -0.9222
vn -0.8775 0.4786 0.0312
vn 0.2021 -0.2265 0.9528
vn -0.7373 0.3250 0.5923
vn -0.5333 -0.0976 0.8403
vn 0.9148 0.4036 -0.0115
vn 0.8009 0.4856 0.3503
vn 0.5963 0.0767 -0.7991
vn -0.8980 0.1904 -0.3966
vn -0.8868 0.0933 0.4527
vn -0.8589 0.1995 0.4717
vn -0.5828 -0.5739 0.5753
vt 0.400310 0.174178
vt 0.150351 0.218832
vt 0.224714 0.000000
vt 0.295591 0.294144
vt 0.073696 0.455984
vt -0.000000 0.269925
vt 0.162082 0.516002
vt 0.521350 0.728507
vt 0.557803 0.686238
vt 0.557803 0.813412
vt 0.905359 0.856854
vt 0.888802 0.765329
vt 0.956783 0.765329
vt 0.229454 0.941689
vt 0.137096 0.930687
vt 0.229454 0.831566
vt 0.400310 0.296457
vt 0.555184 0.256545
vt 0.555184 0.500980
vt 0.606375 0.249269
vt 0.606263 0.193770
vt 0.609516 0.193697
vt 0.609516 0.250116
vt 0.617652 0.659644
vt 0.617546 0.764969
vt 0.614429 0.765903
vt 0.614429 0.659199
vt 0.000000 0.596243
vt 0.069532 0.517131
vt 0.069532 0.704268
vt 0.397075 0.517687
vt 0.396912 0.642245
vt 0.393880 0.643394
vt 0.393880 0.517131
vt 0.393781 0.518168
vt 0.393880 0.640159
vt 0.390709 0.640831
vt 0.390709 0.517131
vt 0.379126 0.518148
vt 0.379260 0.646616
vt 0.376049 0.647052
vt 0.376049 0.517131
vt 0.611175 0.660170
vt 0.611175 0.767007
vt 0.608074 0.767982
vt 0.608073 0.659199
vt 0.557803 0.686238
vt 0.502964 0.664226
vt 0.557803 0.500980
vt 0.400200 0.518027
vt 0.400310 0.644987
vt 0.397075 0.645309
vt 0.397074 0.517131
vt 0.669808 0.171290
vt 0.669808 0.000668
vt 0.672843 0.000000
vt 0.672916 0.171295
vt 0.669920 0.179135
vt 0.669877 0.246079
vt 0.666729 0.246764
vt 0.666729 0.178697
vt 0.921487 0.108013
vt 0.870786 0.070394
vt 0.921487 0.000000
vt 0.948748 0.256545
vt 0.948748 0.349747
vt 0.878687 0.324568
vt 0.630535 0.659752
vt 0.630499 0.750425
vt 0.627328 0.751155
vt 0.627328 0.659199
vt 0.530796 0.245363
vt 0.530366 0.000928
vt 0.533483 -0.000000
vt 0.533483 0.247196
vt 0.663558 0.247204
vt 0.663518 0.179223
vt 0.666729 0.178697
vt 0.666729 0.247932
vt 0.620893 0.757481
vt 0.620951 0.659831
vt 0.624143 0.659199
vt 0.624143 0.757643
vt 0.660415 0.179177
vt 0.660415 0.253222
vt 0.657161 0.253222
vt 0.657196 0.178697
vt 0.332163 0.831309
vt 0.332163 0.941561
vt 0.241775 0.853363
vt 0.369848 0.677631
vt 0.369762 0.517698
vt 0.372967 0.517131
vt 0.372967 0.678562
vt 0.888802 0.856854
vt 0.966922 0.874123
vt 0.888802 0.944234
vt 0.904128 0.623822
vt 0.955201 0.548902
vt 0.955201 0.636282
vt 0.700656 0.920472
vt 0.641564 0.920472
vt 0.665756 0.800903
vt 0.660513 0.250655
vt 0.660415 0.179678
vt 0.663518 0.178697
vt 0.663518 0.251905
vt 0.208447 0.774850
vt 0.137096 0.831566
vt 0.137096 0.693759
vt 0.813184 0.782502
vt 0.813184 0.887994
vt 0.770009 0.862774
vt 0.208447 0.693759
vt 0.241498 0.731279
vt 0.208447 0.800514
vt 0.708300 0.421341
vt 0.685858 0.256545
vt 0.760306 0.256545
vt 0.335162 0.018743
vt 0.638474 0.760078
vt 0.638481 0.649957
vt 0.641564 0.649085
vt 0.641564 0.760925
vt 0.777383 0.582054
vt 0.734765 0.612835
vt 0.734765 0.462461
vt 0.385634 0.344169
vt 0.062155 0.034964
vt 0.660219 0.177300
vt 0.660219 0.000874
vt 0.663338 0.000000
vt 0.663459 0.177300
vt 0.305074 0.455977
vt 0.217570 0.517131
vt 0.611180 0.767185
vt 0.611175 0.659199
vt 0.614428 0.659199
vt 0.614428 0.767371
vt 0.627275 0.660076
vt 0.627328 0.753116
vt 0.624143 0.753774
vt 0.624143 0.659199
vt 0.759067 0.754611
vt 0.813184 0.639762
vt 0.813184 0.782502
vt 0.365692 0.695828
vt 0.365692 0.831308
vt 0.241775 0.760462
vt 0.679249 0.168884
vt 0.679279 0.255636
vt 0.676030 0.255817
vt 0.676030 0.168407
vt 0.387775 0.629579
vt 0.387488 0.517552
vt 0.390709 0.517131
vt 0.390709 0.630974
vt 0.571796 0.000000
vt 0.571796 0.217460
vt 0.533483 0.084082
vt 0.687268 0.462461
vt 0.734765 0.491780
vt 0.687268 0.622170
vt 0.369553 0.518485
vt 0.369762 0.678192
vt 0.366666 0.678956
vt 0.366666 0.517131
vt 0.479497 -0.000000
vt 0.479497 0.256545
vt 0.426440 0.215722
vt 0.400310 0.030418
vt 0.657194 0.177613
vt 0.657161 0.000986
vt 0.660219 -0.000000
vt 0.660219 0.178697
vt 0.676030 0.000895
vt 0.675713 0.169430
vt 0.672916 0.171066
vt 0.672916 -0.000000
vt 0.366666 0.518075
vt 0.366595 0.684390
vt 0.363669 0.685535
vt 0.363669 0.517131
vt 0.638490 0.648279
vt 0.638436 0.463023
vt 0.641564 0.462461
vt 0.641564 0.649085
vt 0.379260 0.645448
vt 0.379377 0.518276
vt 0.382383 0.517131
vt 0.382383 0.646218
vt 0.130317 0.831935
vt 0.130317 0.936913
vt 0.059924 0.927866
vt 0.045746 0.877898
vt 0.332163 0.999065
vt 0.359978 0.927567
vt 0.397204 0.999065
vt 0.388453 0.831309
vt 0.388453 0.927567
vt 0.332163 0.854506
vt 0.700656 0.995564
vt 0.751242 0.918444
vt 0.774701 0.995564
vt 0.555184 0.474993
vt 0.555262 0.257533
vt 0.558361 0.256545
vt 0.558361 0.475690
vt 0.851635 0.975335
vt 0.813184 0.890435
vt 0.876316 0.890435
vt 0.679279 0.254417
vt 0.679474 0.169590
vt 0.682483 0.168407
vt 0.682483 0.254847
vt 0.666526 0.000838
vt 0.666579 0.173644
vt 0.663459 0.174257
vt 0.663459 -0.000000
vt 0.376008 0.518288
vt 0.376049 0.658048
vt 0.372967 0.659090
vt 0.372967 0.517131
vt 0.400310 0.694677
vt 0.400310 0.820967
vt 0.366208 0.767051
vt 0.633786 0.659316
vt 0.633788 0.747730
vt 0.630535 0.747731
vt 0.630535 0.659199
vt 0.617652 0.765631
vt 0.617652 0.660139
vt 0.620754 0.659199
vt 0.620893 0.765632
vt 0.385466 0.518067
vt 0.385547 0.645027
vt 0.382383 0.645637
vt 0.382384 0.517131
vt 0.666579 0.172673
vt 0.666589 0.000463
vt 0.669808 0.000000
vt 0.669808 0.173066
vt 0.575046 0.201576
vt 0.574882 0.253524
vt 0.571796 0.254546
vt 0.571795 0.201636
vt 0.669920 0.243738
vt 0.669920 0.178697
vt 0.673174 0.178754
vt 0.673174 0.243795
vt 0.595535 0.257058
vt 0.595436 0.457181
vt 0.592341 0.458121
vt 0.592341 0.256545
vt 0.241775 0.517131
vt 0.241775 0.693759
vt 0.137096 0.551743
vt 0.116746 0.001953
vt 0.000000 0.119551
vt 0.638436 0.603088
vt 0.558361 0.659199
vt 0.558361 0.462461
vt 0.777383 0.546366
vt 0.836525 0.462461
vt 0.836525 0.597382
vt 0.400310 0.694677
vt 0.400467 0.500980
vt 0.502964 0.694677
vt 0.606263 0.028285
vt 0.657161 0.000000
vt 0.657161 0.193697
vt 0.661412 0.453284
vt 0.595535 0.362902
vt 0.661412 0.256545
vt 0.608073 0.803665
vt 0.558361 0.756867
vt 0.608073 0.659199
vt 0.820913 0.377330
vt 0.820913 0.256545
vt 0.878687 0.292924
vt 0.479497 0.247196
vt 0.479497 0.000000
vt 0.530366 0.199533
vt 0.914895 0.149863
vt 0.996340 0.123826
vt 0.996340 0.206594
vt 0.836525 0.465694
vt 0.904128 0.462461
vt 0.904128 0.582457
vt 0.069532 0.703756
vt 0.069532 0.517131
vt 0.137096 0.590561
vt 0.069532 0.752802
vt 0.130317 0.703756
vt 0.700605 0.963758
vt 0.641564 0.995530
vt 0.641564 0.920472
vt 0.052569 0.830405
vt -0.000000 0.704268
vt 0.058229 0.704268
vt 0.820913 0.393199
vt 0.760306 0.364526
vt 0.820913 0.256545
vt 0.513618 0.927523
vt 0.513618 0.999749
vt 0.453946 0.963558
vt 0.921487 0.000000
vt 0.993713 0.000000
vt 0.985502 0.082082
vt 0.450071 0.943151
vt 0.400310 0.992085
vt 0.400310 0.928816
vt 0.301063 0.638349
vt 0.241775 0.695828
vt 0.241775 0.517131
vt 0.863493 0.430435
vt 0.820913 0.459907
vt 0.820913 0.377330
vt 0.641564 0.639762
vt 0.759067 0.639762
vt 0.758905 0.781708
vt 0.651026 0.800903
vt 0.606263 0.201576
vt 0.571795 0.127240
vt 0.606263 -0.000000
vt 0.641564 0.462461
vt 0.687268 0.541720
vt 0.363669 0.602641
vt 0.341797 0.688428
vt 0.341797 0.517131
vt 0.813184 0.639762
vt 0.895952 0.639762
vt 0.862598 0.765329
vt 0.720546 0.249004
vt 0.723599 0.152844
vt 0.808848 0.249004
vt 0.870787 0.000000
vt 0.870787 0.123826
vt 0.816259 0.081162
vt 0.904128 0.548902
vt 0.904128 0.462461
vt 0.974961 0.504902
vt 0.888802 0.765329
vt 0.888802 0.890435
vt 0.813184 0.800476
vt 0.592341 0.372452
vt 0.558361 0.462461
vt 0.558361 0.256545
vt 0.517958 0.832948
vt 0.400310 0.823701
vt 0.400310 0.694677
vt 0.470950 0.737244
vt 0.765296 0.875747
vt 0.700656 0.918444
vt 0.700656 0.809808
vt 0.764767 0.800903
vt 0.866663 0.123826
vt 0.914895 0.194429
vt 0.866663 0.241907
vt 0.816702 0.459408
vt 0.760306 0.458230
vt 0.760306 0.393199
vt 0.813188 0.394540
vt 0.789977 0.083224
vt 0.720546 0.152844
vt 0.720546 0.008460
vt 0.816259 -0.000000
vt 0.558361 0.917508
vt 0.558361 0.803665
vt 0.634970 0.853684
vt 0.611766 0.912544
vt 0.558361 1.000000
vt 0.558361 0.917508
vt 0.640535 0.967545
vt 0.453946 0.928816
vt 0.400310 0.928816
vt 0.440866 0.832948
vt 0.878687 0.353825
vt 0.960399 0.349747
vt 0.960399 0.441702
vt 0.529825 0.832948
vt 0.529825 0.927523
vt 0.453946 0.896932
vt 0.816259 0.182926
vt 0.866663 0.123826
vt 0.866663 0.247527
vt 0.895952 0.639762
vt 0.970477 0.639762
vt 0.909526 0.727014
vt 0.661412 0.345993
vt 0.685858 0.256545
vt 0.685858 0.430804
vt 0.676030 0.092090
vt 0.720546 -0.000000
vt 0.720546 0.168407
vt 0.301063 0.600433
vt 0.341797 0.517131
vt 0.341797 0.688197
s 1
f 29/1/1 12/2/1 2/3/1
f 12/2/1 29/1/1 28/4/1
f 23/5/1 31/6/1 24/7/1
f 18/8/2 9/9/2 34/10/2
f 10/11/3 37/12/3 7/13/3
f 37/14/4 10/15/4 36/16/4
f 17/17/5 38/18/5 39/19/5
f 24/20/6 4/21/6 72/22/6 71/23/6
f 40/24/7 32/25/7 69/26/7 64/27/7
f 32/28/8 40/29/8 5/30/8
f 1/31/9 41/32/9 47/33/9 48/34/9
f 41/35/10 16/36/10 87/37/10 47/38/10
f 32/39/11 5/40/11 61/41/11 69/42/11
f 23/43/12 24/44/12 71/45/12 88/46/12
f 16/47/13 1/48/13 19/49/13
f 8/50/14 31/51/14 70/52/14 54/53/14
f 30/54/15 29/55/15 82/56/15 74/57/15
f 5/58/16 39/59/16 68/60/16 61/61/16
f 30/62/17 43/63/17 6/64/17
f 43/65/18 3/66/18 14/67/18
f 45/68/19 8/69/19 54/70/19 89/71/19
f 39/72/20 38/73/20 67/74/20 68/75/20
f 7/76/21 37/77/21 66/78/21 51/79/21
f 43/80/22 14/81/22 62/82/22 86/83/22
f 11/84/23 15/85/23 58/86/23 57/87/23
f 44/88/24 26/89/24 45/90/24
f 38/91/25 17/92/25 65/93/25 67/94/25
f 45/95/26 22/96/26 27/97/26
f 8/98/27 45/99/27 27/100/27
f 1/101/28 16/102/28 41/103/28
f 42/104/29 7/105/29 51/106/29 85/107/29
f 6/108/30 25/109/30 30/110/30
f 6/111/31 15/112/31 25/113/31
f 25/114/32 15/115/32 4/116/32
f 46/117/33 14/118/33 3/119/33
f 2/3/1 21/120/1 29/1/1
f 37/121/34 36/122/34 84/123/34 66/124/34
f 8/125/35 27/126/35 31/127/35
f 28/4/1 29/1/1 30/128/1
f 24/7/1 31/6/1 22/129/1
f 12/2/1 24/7/1 22/129/1
f 26/130/36 13/131/36 79/132/36 81/133/36
f 25/134/1 4/135/1 24/7/1
f 2/136/37 26/137/37 81/138/37 80/139/37
f 44/140/38 45/141/38 89/142/38 60/143/38
f 11/144/39 33/145/39 10/146/39
f 36/147/40 10/148/40 33/149/40
f 6/150/41 43/151/41 86/152/41 83/153/41
f 21/154/42 2/155/42 80/156/42 78/157/42
f 34/158/43 35/159/43 18/160/43
f 9/161/44 18/162/44 35/163/44
f 9/164/45 35/165/45 52/166/45 56/167/45
f 17/168/46 39/169/46 5/170/46 40/171/46
f 13/172/47 44/173/47 60/174/47 79/175/47
f 29/176/48 21/177/48 78/178/48 82/179/48
f 14/180/49 46/181/49 77/182/49 62/183/49
f 16/184/50 19/185/50 53/186/50 87/187/50
f 34/188/51 9/189/51 56/190/51 55/191/51
f 10/192/52 7/193/52 42/194/52 20/195/52
f 4/196/53 15/197/53 20/198/53
f 10/199/54 20/200/54 11/201/54
f 11/202/55 20/203/55 15/204/55
f 35/205/56 34/206/56 55/207/56 52/208/56
f 3/209/57 43/210/57 30/211/57
f 17/212/58 40/213/58 64/214/58 65/215/58
f 46/216/59 3/217/59 75/218/59 77/219/59
f 36/220/60 33/221/60 63/222/60 84/223/60
f 45/224/61 26/225/61 22/226/61
f 3/227/62 30/228/62 74/229/62 75/230/62
f 15/231/63 6/232/63 83/233/63 58/234/63
f 33/235/64 11/236/64 57/237/64 63/238/64
f 19/239/65 1/240/65 48/241/65 53/242/65
f 20/243/66 42/244/66 85/245/66 73/246/66
f 4/247/67 20/248/67 73/249/67 72/250/67
f 31/251/68 23/252/68 88/253/68 70/254/68
f 44/255/69 13/256/69 26/257/69
f 26/258/1 2/3/1 22/129/1
f 22/129/1 31/6/1 27/259/1
f 28/4/1 24/7/1 12/2/1
f 25/134/1 24/7/1 28/4/1
f 30/128/1 25/134/1 28/4/1
f 22/129/1 2/3/1 12/2/1
f 52/260/70 66/261/70 56/262/70
f 53/263/71 55/264/71 54/265/71
f 53/266/72 52/267/72 55/268/72
f 48/269/73 52/270/73 53/271/73
f 66/272/74 84/273/74 56/274/74
f 62/275/75 67/276/75 63/277/75
f 50/278/76 67/279/76 62/280/76
f 68/281/77 67/282/77 49/283/77
f 59/284/78 69/285/78 60/286/78
f 55/287/79 59/288/79 54/289/79
f 87/290/80 53/291/80 70/292/80
f 70/192/81 53/293/81 54/294/81
f 51/295/82 47/296/82 85/297/82
f 47/298/83 52/299/83 48/300/83
f 47/301/84 51/302/84 52/303/84
f 49/304/85 76/305/85 68/306/85
f 76/307/86 49/308/86 77/309/86
f 68/310/87 76/311/87 79/312/87
f 61/313/88 79/314/88 60/315/88
f 68/316/89 79/317/89 61/318/89
f 65/319/90 84/320/90 63/321/90 67/322/90
f 88/323/91 87/324/91 70/325/91
f 81/319/92 79/326/92 80/327/92
f 75/328/93 74/329/93 82/330/93
f 60/331/94 69/332/94 61/333/94
f 83/334/95 63/335/95 57/336/95
f 52/337/96 51/338/96 66/339/96
f 65/340/97 64/341/97 56/342/97
f 56/343/98 84/344/98 65/345/98
f 50/346/99 49/347/99 67/348/99
f 69/349/100 55/350/100 56/351/100 64/352/100
f 47/353/101 88/354/101 71/355/101 85/356/101
f 69/357/102 59/358/102 55/359/102
f 71/360/103 72/361/103 73/362/103 85/363/103
f 86/364/104 62/365/104 63/366/104 83/367/104
f 78/368/105 80/369/105 79/370/105 76/371/105
f 77/372/106 49/373/106 50/374/106
f 78/375/107 76/376/107 77/377/107
f 59/378/108 89/379/108 54/380/108
f 60/381/109 89/382/109 59/383/109
f 88/384/110 47/385/110 87/386/110
f 57/387/111 58/388/111 83/389/111
f 82/390/112 77/391/112 75/392/112
f 50/393/113 62/394/113 77/395/113
f 77/396/114 82/397/114 78/398/114
