# Blender 4.4.3
# www.blender.org
o pien
v -0.966433 0.000000 0.619975
v -0.835017 0.307909 0.608012
v -1.180247 -0.000000 -1.112530
v -0.781925 0.311666 -0.713676
v 0.868867 0.000000 0.939448
v 0.631786 0.402262 0.467323
v 0.599293 -0.000000 -0.817525
v 0.494109 0.390443 -0.716030
v 0.076319 -0.000000 -1.460764
v -0.370449 0.007506 -0.798036
v -0.370796 0.411715 -0.705843
v 0.161882 0.407201 -0.873528
v -0.633696 0.000000 1.270254
v 0.143729 0.003561 0.834085
v 0.084364 0.333902 0.721443
v -0.419148 0.268684 0.749377
v -1.029561 0.017424 -0.341053
v -1.578265 0.000000 0.300354
v -0.866438 0.408049 0.033754
v -0.890533 0.305997 -0.339891
v 0.819101 0.010338 0.117058
v 1.302025 -0.000000 -0.614180
v 0.624167 0.354816 -0.409111
v 0.744362 0.364294 0.096436
v -0.223445 -0.000000 -0.256211
v -0.332725 0.000000 0.289199
v 0.297194 -0.000000 -0.338631
v 0.180788 0.000000 0.232313
v -0.740888 0.641778 -0.308350
v -0.664266 0.641778 -0.556293
v 0.143296 0.641778 -0.735630
v 0.413675 0.641778 -0.596293
v 0.604224 0.641778 0.066558
v 0.532876 0.641778 0.378524
v -0.300407 0.641778 0.598466
v -0.641662 0.641778 0.451611
v -0.287073 0.641778 -0.616712
v 0.067223 0.641778 0.573755
v -0.723600 0.641778 0.030708
v 0.503412 0.641778 -0.336961
v -0.547675 1.073576 -0.249690
v -0.459807 0.910292 -0.473753
v 0.152429 0.910292 -0.583948
v 0.312711 1.052309 -0.490817
v 0.466920 0.973255 0.048614
v 0.415416 0.910293 0.273815
v -0.261554 0.859139 0.497215
v -0.515417 0.910293 0.389585
v -0.140853 0.875636 -0.495220
v 0.041817 0.859139 0.433794
v -0.591565 1.073576 0.080083
v 0.382647 1.054226 -0.288708
v -0.629145 1.073576 -0.271609
v -0.528069 0.910292 -0.536094
v 0.157916 0.910292 -0.659506
v 0.369508 1.052309 -0.537319
v 0.537743 0.973255 0.047906
v 0.474750 0.910293 0.323339
v -0.266822 0.859139 0.563387
v -0.574941 0.910293 0.435196
v -0.175177 0.875636 -0.562805
v 0.062825 0.859139 0.499730
v -0.665785 1.073576 0.075888
v 0.448737 1.054226 -0.308357
v -0.547889 0.838159 -0.250658
v -0.452425 0.838159 -0.473596
v 0.154601 0.838159 -0.584563
v 0.312496 0.838159 -0.491786
v 0.466706 0.838159 0.047645
v 0.415202 0.838159 0.272846
v -0.261823 0.838159 0.496517
v -0.515746 0.838159 0.388715
v -0.135929 0.838159 -0.495427
v 0.041602 0.838159 0.432826
v -0.591779 0.838159 0.079115
v 0.382432 0.838159 -0.289677
v -0.174662 0.826651 -0.334554
v -0.025090 0.850577 0.270772
v -0.042788 0.812897 -0.038762
vn -0.7518 0.6591 0.0209
vn 0.5808 0.5401 -0.6090
vn 0.9146 0.4024 0.0388
vn -0.4751 0.7338 0.4856
vn 0.0043 -1.0000 0.0027
vn 0.0049 -1.0000 -0.0048
vn 0.0049 -1.0000 -0.0043
vn -0.2523 0.4531 -0.8550
vn 0.8685 0.4495 0.2089
vn 0.3409 0.4328 0.8345
vn -0.0000 -1.0000 -0.0000
vn -0.0002 -1.0000 -0.0001
vn 0.0020 -1.0000 0.0015
vn 0.0574 0.6369 0.7688
vn 0.2163 0.6824 0.6982
vn 0.1831 0.4849 -0.8552
vn -0.5232 0.5787 -0.6255
vn -0.0085 -0.9999 0.0094
vn -0.0010 -1.0000 -0.0003
vn 0.0010 -1.0000 0.0003
vn -0.0092 -0.9999 0.0071
vn -0.0085 -0.9999 0.0095
vn -0.0078 -0.9998 -0.0190
vn 0.8795 0.4229 -0.2182
vn -0.2888 0.4860 0.8248
vn -0.1147 0.4344 -0.8934
vn -0.8892 0.4573 -0.0139
vn 0.8518 0.4267 -0.3038
vn -0.8320 0.5345 0.1486
vn 0.0092 -0.9999 0.0122
vn 0.4050 0.6779 -0.6136
vn 0.6974 0.6901 0.1935
vn -0.4929 0.7513 0.4389
vn -0.6530 0.6483 -0.3915
vn -0.3725 0.1735 0.9117
vn 0.9616 0.1596 -0.2232
vn 0.3600 0.2828 0.8891
vn 0.9442 0.2256 0.2401
vn 0.9346 0.1467 -0.3240
vn -0.2717 0.3047 -0.9129
vn 0.4229 0.1945 -0.8850
vn -0.9804 0.1951 -0.0276
vn -0.1070 0.1966 -0.9746
vn 0.3957 0.4919 -0.7756
vn -0.8700 0.4217 -0.2554
vn 0.0256 0.3982 0.9169
vn -0.9562 0.1600 0.2452
vn -0.8523 0.3344 -0.4021
vn 0.1222 0.2339 0.9646
vn 0.2614 0.8461 -0.4645
vn -0.4916 0.8339 -0.2509
vn -0.0843 0.9707 0.2249
vn 0.1444 0.9860 0.0837
vn 0.0969 0.9924 -0.0765
vn -0.1038 0.9944 0.0209
vn -0.0996 0.9926 0.0693
vn -0.0000 1.0000 -0.0000
vn 0.1268 0.9035 0.4095
vn -0.0040 1.0000 -0.0075
vn 0.0326 0.9751 0.2195
vn 0.9711 -0.0003 -0.2388
vn -0.5017 -0.0082 0.8650
vn -0.9702 -0.0002 0.2424
vn 0.0684 0.0072 0.9976
vn -0.2049 0.0412 -0.9779
vn 0.9276 0.0206 0.3729
vn -0.9450 -0.0005 0.3270
vn 0.3916 0.0130 -0.9200
vn 0.0433 0.9989 0.0159
vn -0.0004 0.9990 0.0455
vn 0.0280 0.9991 0.0309
vn -0.0407 0.9978 -0.0517
vn 0.0225 0.9990 0.0378
vn -0.0040 0.9987 0.0507
vn -0.0236 0.9990 0.0372
vn -0.0014 0.9982 -0.0605
vn 0.2908 0.0116 0.9567
vn -0.9749 0.0041 -0.2224
vn 0.9913 -0.0014 0.1319
vn -0.3948 0.0209 -0.9185
vt 0.787613 0.167452
vt 0.720748 0.165509
vt 0.719409 0.087649
vt 0.807718 0.000000
vt 0.810520 0.369079
vt 0.912578 0.483216
vt 0.899887 0.527712
vt 0.810520 0.521562
vt 0.793966 0.545290
vt 0.716040 0.544208
vt 0.707653 0.466716
vt 0.810520 0.369079
vt 0.958076 0.291145
vt 0.846406 0.240966
vt 0.889237 0.156467
vt 0.911740 0.141051
vt 0.183788 0.262521
vt 0.058298 0.323641
vt 0.000000 0.156199
vt 0.156351 0.135710
vt 0.116215 0.874710
vt 0.118185 0.754779
vt 0.171914 0.767332
vt 0.171932 0.863374
vt 0.650545 0.547990
vt 0.651351 0.482955
vt 0.359764 0.766775
vt 0.380553 0.642490
vt 0.436066 0.660028
vt 0.431573 0.764903
vt 0.544181 0.145784
vt 0.286836 0.220774
vt 0.291932 -0.000000
vt 0.398798 0.115280
vt 0.270912 0.607122
vt 0.284499 0.758738
vt 0.350126 0.875226
vt 0.270912 0.936993
vt 0.000000 0.607122
vt 0.091083 0.669419
vt 0.029178 0.760239
vt 0.000000 0.887592
vt 0.358093 0.443778
vt 0.304221 0.607122
vt 0.192992 0.387577
vt 0.296025 0.340124
vt 0.544181 0.461668
vt 0.467955 0.310660
vt 0.704540 0.654721
vt 0.639537 0.636150
vt 0.369627 0.959709
vt 0.434298 0.844007
vt 0.445055 0.912589
vt 0.169654 0.685402
vt 0.693525 0.244082
vt 0.638067 0.242240
vt 0.643107 0.169463
vt 0.685988 0.722184
vt 0.631176 0.693331
vt 0.705936 0.369079
vt 0.629109 0.333754
vt 0.158360 0.504401
vt 0.000934 0.503286
vt 0.810520 0.556432
vt 0.822346 0.527712
vt 0.893749 0.536718
vt 0.893749 0.689986
vt 0.810520 0.691329
vt 0.807718 0.062500
vt 0.958076 -0.000000
vt 0.807718 0.294183
vt 0.481155 0.834918
vt 0.501365 0.896748
vt 0.551163 0.622987
vt 0.577758 0.546762
vt 0.495587 0.669705
vt 0.480722 0.762802
vt 0.591593 0.490597
vt 0.544181 0.673509
vt 0.225031 0.787572
vt 0.232033 0.862088
vt 0.182911 0.912741
vt 0.270912 0.899815
vt 0.544181 0.245710
vt 0.546917 0.172172
vt 0.228616 0.712392
vt 0.125508 0.936101
vt 0.642805 0.117969
vt 0.569911 0.326997
vt 0.580041 0.120377
vt 0.602638 0.760453
vt 0.560129 0.788700
vt 0.544181 0.776830
vt 0.594687 0.744139
vt 0.561825 0.922543
vt 0.586964 0.952141
vt 0.579460 0.966042
vt 0.546093 0.926793
vt 0.707754 0.962903
vt 0.753680 0.943011
vt 0.766557 0.953519
vt 0.710492 0.977893
vt 0.773632 0.791025
vt 0.740169 0.741636
vt 0.747373 0.727196
vt 0.787390 0.787205
vt 0.568861 0.857068
vt 0.553190 0.852581
vt 0.772610 0.857706
vt 0.787390 0.859447
vt 0.670485 0.737692
vt 0.666573 0.722184
vt 0.632480 0.958642
vt 0.631026 0.973407
vt 0.893749 0.594098
vt 0.932893 0.527712
vt 0.947961 0.528588
vt 0.942974 0.596536
vt 0.947961 0.693047
vt 0.972138 0.661415
vt 0.987229 0.661902
vt 0.992764 0.693047
vt 0.944565 0.408372
vt 0.959964 0.482395
vt 0.914412 0.482856
vt 0.916082 0.408739
vt 0.981918 0.596380
vt 0.973722 0.527712
vt 0.988884 0.529290
vt 0.989788 0.597440
vt 0.504645 0.760194
vt 0.506007 0.693545
vt 0.510433 0.693667
vt 0.509057 0.760341
vt 0.932500 0.710905
vt 0.894742 0.663541
vt 0.943967 0.665979
vt 0.947961 0.711381
vt 0.957726 0.527254
vt 0.912578 0.527712
vt 0.501370 0.807732
vt 0.516454 0.808186
vt 0.830096 0.746038
vt 0.897568 0.722184
vt 0.897203 0.843082
vt 0.829015 0.828379
vt 0.817357 0.937889
vt 0.790854 0.908752
vt 0.796779 0.843628
vt 0.937709 0.946458
vt 0.962851 0.832979
vt 1.000000 0.839879
vt 0.982834 0.925635
vt 0.862987 0.943659
vt 0.787390 0.776017
vt 0.966091 0.724476
vt 1.000000 0.773166
vt 0.927788 0.361450
vt 0.912578 0.361746
vt 0.501365 0.607122
vt 0.516454 0.607547
s 1
f 17/1/1 20/2/1 4/3/1 3/4/1
f 9/5/2 12/6/2 8/7/2 7/8/2
f 21/9/3 24/10/3 6/11/3 5/12/3
f 13/13/4 16/14/4 2/15/4 1/16/4
f 28/17/5 21/18/6 5/19/6 14/20/7
f 12/21/8 11/22/8 37/23/8 31/24/8
f 6/11/9 24/10/9 33/25/9 34/26/9
f 15/27/10 6/28/10 34/29/10 38/30/10
f 18/31/11 26/32/12 13/33/13 1/34/11
f 26/32/12 28/17/5 14/20/7 13/33/13
f 5/35/14 6/28/14 15/27/14 14/36/14
f 14/36/15 15/27/15 16/37/15 13/38/15
f 3/39/16 4/40/16 11/22/16 10/41/16
f 10/41/17 11/22/17 12/21/17 9/42/17
f 10/43/18 9/44/19 27/45/20 25/46/21
f 25/46/21 27/45/20 28/17/5 26/32/12
f 3/47/22 10/43/18 25/46/21 17/48/22
f 17/48/23 25/46/23 26/32/23 18/31/23
f 24/10/24 23/49/24 40/50/24 33/25/24
f 2/51/25 16/37/25 35/52/25 36/53/25
f 11/22/26 4/40/26 30/54/26 37/23/26
f 20/2/27 19/55/27 39/56/27 29/57/27
f 23/49/28 8/58/28 32/59/28 40/50/28
f 19/55/29 2/60/29 36/61/29 39/56/29
f 9/44/19 7/62/11 22/63/11 27/45/20
f 27/45/30 22/63/30 21/18/30 28/17/30
f 7/64/31 8/65/31 23/66/31 22/67/31
f 22/68/32 23/49/32 24/10/32 21/9/32
f 1/16/33 2/15/33 19/69/33 18/70/33
f 18/71/34 19/55/34 20/2/34 17/1/34
f 36/53/35 35/52/35 59/72/35 60/73/35
f 33/25/36 40/50/36 64/74/36 57/75/36
f 38/30/37 34/29/37 58/76/37 62/77/37
f 34/26/38 33/25/38 57/75/38 58/78/38
f 40/50/39 32/59/39 56/79/39 64/74/39
f 31/24/40 37/23/40 61/80/40 55/81/40
f 32/82/41 31/24/41 55/81/41 56/83/41
f 29/57/42 39/56/42 63/84/42 53/85/42
f 37/23/43 30/54/43 54/86/43 61/80/43
f 8/87/44 12/21/44 31/24/44 32/82/44
f 4/3/45 20/2/45 29/57/45 30/88/45
f 16/37/46 15/27/46 38/30/46 35/52/46
f 39/56/47 36/61/47 60/89/47 63/84/47
f 30/88/48 29/57/48 53/85/48 54/90/48
f 35/52/49 38/30/49 62/77/49 59/72/49
f 41/91/50 42/92/50 54/93/50 53/94/50
f 43/95/51 44/96/51 56/97/51 55/98/51
f 45/99/52 46/100/52 58/101/52 57/102/52
f 47/103/53 48/104/53 60/105/53 59/106/53
f 42/92/54 49/107/54 61/108/54 54/93/54
f 49/107/55 43/95/55 55/98/55 61/108/55
f 46/100/56 50/109/56 62/110/56 58/101/56
f 50/109/57 47/103/57 59/106/57 62/110/57
f 48/104/58 51/111/58 63/112/58 60/105/58
f 51/111/57 41/91/57 53/94/57 63/112/57
f 44/96/59 52/113/59 64/114/59 56/97/59
f 52/113/60 45/99/60 57/102/60 64/114/60
f 51/115/61 48/116/61 72/117/61 75/118/61
f 44/119/62 43/120/62 67/121/62 68/122/62
f 45/123/63 52/124/63 76/125/63 69/126/63
f 49/127/64 42/128/64 66/129/64 73/130/64
f 47/131/65 50/132/65 74/133/65 71/134/65
f 42/135/66 41/136/66 65/137/66 66/138/66
f 52/124/67 44/139/67 68/140/67 76/125/67
f 48/141/68 47/131/68 71/134/68 72/142/68
f 65/143/69 75/144/69 79/145/69 77/146/69
f 68/147/70 67/148/70 73/149/70 77/146/70
f 69/150/71 78/151/71 74/152/71 70/153/71
f 76/154/72 79/145/72 78/151/72 69/150/72
f 77/146/73 73/149/73 66/155/73 65/143/73
f 74/152/74 78/151/74 72/156/74 71/157/74
f 77/146/75 79/145/75 76/154/75 68/147/75
f 78/151/76 79/145/76 75/144/76 72/156/76
f 43/120/77 49/127/77 73/130/77 67/121/77
f 46/158/78 45/123/78 69/126/78 70/159/78
f 41/136/79 51/115/79 75/118/79 65/137/79
f 50/132/80 46/160/80 70/161/80 74/133/80
