# Blender 4.4.3
# www.blender.org
o treeNoLiscie
v 2.848436 17.468046 -6.011739
v 1.188552 13.699366 -5.221550
v 1.073005 13.825862 -4.979030
v 1.339600 13.650887 -4.798757
v 1.475888 13.505639 -5.049111
v -1.452605 12.054032 -4.939246
v -1.699826 12.069128 -4.893631
v -2.061661 12.088819 -4.816538
v -1.831517 12.390057 -4.474143
v -1.653681 12.390902 -4.500435
v -1.494886 12.363830 -4.531232
v -2.967497 18.435156 -6.649849
v -1.832729 15.095161 -6.560560
v -2.120669 15.048416 -6.488706
v -2.006547 15.066894 -6.515112
v -2.284446 14.969238 -6.783420
v -1.877065 15.029483 -6.907417
v -2.053219 15.000682 -6.860402
v -1.285424 11.900620 -4.222946
v -1.784761 11.909898 -4.145955
v -1.595537 11.907948 -4.171426
v -2.026609 11.564435 -4.503949
v -1.230389 11.542789 -4.647437
v -1.641422 11.536089 -4.579788
v -11.692843 18.033451 -5.066106
v -10.249164 14.932372 -3.867395
v -10.242143 14.920311 -3.716291
v -10.718543 14.647613 -3.895392
v -10.703831 14.637712 -3.731493
v -9.775593 18.701033 2.753850
v -8.683253 14.841291 2.372462
v -8.307407 14.824284 2.465859
v -8.274374 14.523351 3.006858
v -7.973180 14.685035 2.769863
v -3.522488 19.951263 -0.842065
v -4.076997 16.584417 -0.965124
v -4.081503 16.566383 -0.747112
v -4.096012 16.542709 -0.535332
v -4.524078 16.718472 -0.651948
v -4.480125 16.774212 -1.074957
v -4.498074 16.748363 -0.861176
v -6.553426 13.704107 -1.397195
v -6.585491 13.667874 -1.111007
v -6.617622 13.622096 -0.897619
v -7.104299 13.684097 -1.092576
v -6.871879 13.832950 -1.547944
v -6.900420 13.789871 -1.250140
v -6.145195 13.312616 -1.320681
v -6.183239 13.287049 -1.014153
v -6.250811 13.247321 -0.673164
v -6.639653 12.926579 -0.671137
v -6.704728 12.949217 -1.491872
v -6.731818 12.919309 -1.168563
v 0.467749 9.043509 -1.197329
v -0.437018 9.092461 -1.171916
v -0.485474 9.116394 -0.764668
v -0.138148 9.165013 -0.227099
v 0.409359 9.171271 -0.226501
v -0.475828 9.139544 -0.228722
v -0.079502 9.084899 -1.178405
v 0.407912 9.145432 -0.762350
v 7.890137 20.381386 0.909641
v 5.408662 16.309164 0.641015
v 5.420368 16.315292 0.867567
v 5.158048 16.698549 0.942265
v 5.144302 16.693195 0.730877
v 5.149181 16.696217 0.501681
v 0.003262 23.171535 -0.596922
v 0.114710 13.281732 0.461054
v 0.129175 13.272505 -0.057861
v -0.375917 13.241101 0.003847
v -0.764601 13.223428 0.011581
v -0.771153 13.235448 0.532977
v -0.361404 13.258861 0.995696
v -0.749319 13.240784 1.006627
v 5.411571 16.310600 0.395160
v 0.451489 19.790321 -1.313698
v 0.283760 19.790796 -1.313437
v 0.112692 19.792177 -1.312678
v 0.114366 19.789516 -1.146967
v 0.451489 19.785912 -0.981777
v 0.453290 19.787628 -1.148006
v 0.112692 19.787766 -0.980757
v 0.137780 13.290171 0.927370
v -0.132672 14.206228 0.211688
v -0.443830 14.212532 0.244751
v -0.802481 14.192540 0.249199
v -0.812326 14.202713 0.743596
v -0.123046 14.218723 1.143367
v -0.150184 14.213093 0.705490
v -0.787858 14.204578 1.189721
v -0.429907 14.224949 1.180956
v 0.283760 19.786386 -0.981516
v 0.471542 8.028295 -1.560734
v -0.083683 8.075104 -1.539827
v -0.816196 8.153285 -1.508407
v -0.766365 8.095948 -0.859304
v 0.513246 8.111938 -0.299881
v 0.516320 8.082213 -0.859108
v -0.758997 8.124443 -0.300092
v -0.043559 8.110435 -0.299940
v -0.436694 -0.000000 0.050088
v 0.000000 3.289168 -0.804463
v 0.149803 -0.000000 1.349538
v 0.000000 3.438117 0.804463
v 0.039042 0.000000 -2.057319
v 1.481666 -0.000000 0.100177
v -0.807733 3.357130 0.000000
v 0.807733 3.368098 0.000000
v -2.123066 0.000000 0.000000
v -1.667607 -0.000000 1.667607
v -0.807733 3.430417 0.804463
v -1.667607 0.000000 -1.667607
v -0.807733 3.289908 -0.804463
v 1.967211 -0.000000 1.561395
v 0.807733 3.434433 0.804463
v 1.460041 0.000000 -1.573464
v 0.807733 3.294094 -0.804463
vn 0.8270 -0.1552 0.5403
vn 0.3153 -0.3258 -0.8913
vn -0.3191 0.3993 0.8595
vn 0.5288 -0.6018 0.5985
vn 0.1865 -0.4427 -0.8770
vn -0.4794 0.6706 -0.5661
vn -0.8167 0.2507 -0.5198
vn -0.8872 0.1946 0.4183
vn 0.1817 0.5842 0.7910
vn -0.2037 -0.5123 -0.8343
vn 0.1166 0.5684 0.8144
vn -0.1584 0.5230 0.8375
vn -0.1507 -0.5260 -0.8370
vn -0.3127 -0.0250 -0.9495
vn -0.8371 -0.1848 0.5149
vn 0.2354 0.1058 0.9661
vn -0.2565 -0.0090 -0.9665
vn -0.1594 -0.5618 -0.8118
vn 0.9940 0.0971 -0.0510
vn 0.1020 0.6074 0.7878
vn -0.1974 -0.5628 -0.8027
vn 0.2092 0.0986 0.9729
vn 0.9331 0.3123 -0.1784
vn -0.8507 0.1369 0.5074
vn -0.0948 -0.6816 -0.7256
vn 0.0522 0.7381 0.6727
vn 0.9289 0.2134 -0.3026
vn 0.1760 0.6039 0.7774
vn -0.8829 0.2175 0.4161
vn -0.2155 0.3022 0.9286
vn -0.9648 -0.2530 0.0713
vn 0.2157 -0.2631 -0.9404
vn -0.5095 0.1780 0.8418
vn 0.2280 0.9650 0.1295
vn 0.4922 -0.1479 -0.8578
vn 0.9078 0.4193 -0.0087
vn 0.2449 0.1637 -0.9556
vn -0.8643 -0.2855 0.4140
vn 0.5193 0.2364 0.8212
vn 0.1703 0.9537 -0.2480
vn -0.7378 -0.6711 -0.0732
vn 0.6005 -0.5934 0.5360
vn 0.7071 0.3148 -0.6332
vn -0.9536 0.2909 -0.0770
vn 0.9856 -0.1614 0.0495
vn -0.9556 0.2913 -0.0450
vn -0.2135 0.1231 0.9692
vn -0.7770 0.6293 0.0142
vn -0.2915 0.1218 0.9488
vn 0.2979 -0.1016 -0.9492
vn 0.7584 -0.6516 -0.0154
vn 0.7584 -0.6516 -0.0151
vn 0.7583 -0.6517 -0.0192
vn 0.9866 -0.1628 0.0069
vn 0.2596 -0.0075 -0.9657
vn -0.8866 -0.4106 -0.2130
vn 0.6323 0.7405 0.2279
vn -0.3467 -0.9341 -0.0851
vn 0.5970 0.8021 -0.0118
vn 0.7581 -0.6518 -0.0233
vn -0.7342 0.6413 -0.2230
vn 0.1921 0.2331 -0.9533
vn 0.5822 0.8113 0.0538
vn -0.6313 -0.7708 0.0856
vn 0.5893 0.8046 0.0733
vn 0.6640 0.7315 0.1548
vn 0.3316 0.0517 -0.9420
vn -0.0009 -0.0694 0.9976
vn -0.0005 -0.0692 0.9976
vn -0.0789 -0.0120 0.9968
vn 0.9986 0.0526 0.0060
vn -0.1340 -0.6839 -0.7172
vn -0.0001 -0.0690 0.9976
vn -0.6283 -0.7760 -0.0549
vn 0.0964 0.7495 0.6550
vn 0.9950 0.0998 -0.0036
vn 0.8537 -0.5207 0.0071
vn -0.8019 0.5974 -0.0092
vn -0.1133 0.1922 -0.9748
vn 0.8544 -0.5187 -0.0301
vn 0.4965 -0.8678 0.0201
vn 0.1136 -0.1716 0.9786
vn -0.4248 0.9051 -0.0180
vn -0.0630 0.2503 -0.9661
vn -0.8024 0.5956 0.0371
vn 0.1408 -0.0957 0.9854
vn 0.9967 0.0760 -0.0270
vn -0.0713 0.2611 -0.9627
vn -0.9964 -0.0780 0.0333
vn 0.0719 -0.2733 0.9592
vn 0.0035 -0.1126 0.9936
vn 0.0023 -0.1127 0.9936
vn 0.0024 -0.1127 0.9936
vn -0.9994 -0.0344 0.0095
vn 0.9911 0.1332 -0.0086
vn -0.0018 0.2072 -0.9783
vn -0.0027 0.2071 -0.9783
vn -0.0220 0.2729 -0.9618
vn 0.9959 0.0551 0.0712
vn -0.9968 -0.0570 -0.0568
vn 0.0294 -0.2855 0.9579
vn -0.9840 0.1743 0.0366
vn 0.0794 0.3504 0.9332
vn 0.0038 0.3619 0.9322
vn -0.9873 0.1582 -0.0140
vn 0.0012 -0.1128 0.9936
vn -0.9995 -0.0311 -0.0104
vn -0.0009 0.2073 -0.9783
vn 0.9915 0.1299 0.0121
vn -0.4244 0.9054 0.0114
vn -0.1192 0.2377 -0.9640
vn -0.9974 -0.0515 0.0506
vn 0.1337 -0.1830 0.9740
vn -0.0707 -0.2579 -0.9636
vn 0.9920 -0.1195 -0.0408
vn -0.0000 -0.2688 -0.9632
vn 0.9948 -0.0985 0.0243
vn -0.9994 0.0090 0.0342
vn 0.9976 0.0603 -0.0348
vn 0.0009 0.2295 0.9733
vn 0.0006 0.2297 0.9733
vn -0.0199 -0.1556 -0.9876
vn -0.0238 -0.1517 -0.9881
vn -0.0202 -0.1554 -0.9877
vn -0.0278 0.2379 -0.9709
vn 0.4967 -0.8679 -0.0067
vn -0.9992 -0.0372 -0.0153
vn 0.0355 -0.1855 0.9820
vn 0.9981 0.0618 -0.0021
vn -0.0790 0.1710 0.9821
vn -0.0000 -1.0000 -0.0000
vn -0.1451 0.3193 -0.9365
vn -0.9999 0.0105 0.0046
vn -0.0277 -0.1477 -0.9886
vn -0.9334 0.3198 0.1625
vn 0.9804 0.1966 -0.0144
vn 0.2013 0.3068 -0.9302
vn 0.9503 0.2296 -0.2104
vn -0.9278 0.3270 -0.1798
vn 0.1176 0.1878 0.9751
vn 0.0003 0.2299 0.9732
vt 0.337964 0.234597
vt 0.331494 0.236124
vt 0.306748 0.129437
vt 0.431824 0.656605
vt 0.423831 0.652477
vt 0.459131 0.555116
vt 0.029639 0.690477
vt 0.022122 0.693942
vt -0.000000 0.589067
vt 0.352711 0.307405
vt 0.341730 0.314744
vt 0.365993 0.710071
vt 0.358965 0.697981
vt 0.842319 0.843559
vt 0.830987 0.840581
vt 0.831810 0.765221
vt 0.838151 0.764292
vt 0.842319 0.664810
vt 0.805908 0.740945
vt 0.792079 0.743998
vt 0.789377 0.733208
vt 0.802126 0.730046
vt 0.089484 0.751633
vt 0.081538 0.750428
vt 0.088824 0.739257
vt 0.092996 0.739284
vt 0.355527 0.710687
vt 0.345682 0.710345
vt 0.343419 0.697690
vt 0.352646 0.697848
vt 0.094320 0.752427
vt 0.097530 0.740100
vt 0.335589 0.627872
vt 0.329809 0.628834
vt 0.306748 0.540463
vt 0.558988 0.821263
vt 0.551913 0.823760
vt 0.551913 0.748327
vt 0.113195 0.670821
vt 0.108879 0.669306
vt 0.152293 0.589067
vt 0.340003 0.626986
vt 0.543056 0.830519
vt 0.530936 0.828128
vt 0.535069 0.748327
vt 0.543056 0.752888
vt 0.116029 0.671810
vt 0.551913 0.821969
vt 0.543056 0.821969
vt 0.547297 0.748327
vt 0.802499 0.824204
vt 0.777364 0.820749
vt 0.420526 0.790276
vt 0.406184 0.789846
vt 0.048351 0.821051
vt 0.039205 0.819688
vt 0.430940 0.349535
vt 0.421522 0.372325
vt 0.777364 0.669288
vt 0.784947 0.664810
vt 0.286702 0.667783
vt 0.273259 0.671616
vt 0.238354 0.589067
vt 0.658478 0.431810
vt 0.654480 0.433242
vt 0.672928 0.348626
vt 0.689875 0.433655
vt 0.676190 0.437411
vt 0.672928 0.348626
vt 0.252009 0.774223
vt 0.238354 0.755741
vt 0.849520 0.192181
vt 0.842902 0.188137
vt 0.838204 0.082687
vt 0.841380 0.084991
vt 0.771314 0.480877
vt 0.769425 0.503873
vt 0.849520 0.000000
vt 0.823517 0.315269
vt 0.814637 0.310978
vt 0.830671 0.208074
vt 0.512396 0.503740
vt 0.499698 0.520545
vt 0.485956 0.419642
vt 0.851205 0.779718
vt 0.842319 0.778248
vt 0.851205 0.664810
vt 0.715831 0.084694
vt 0.707890 0.075454
vt 0.777639 -0.000000
vt 0.782196 0.007158
vt 0.611442 0.531601
vt 0.605614 0.555698
vt 0.530936 0.844570
vt 0.518914 0.842702
vt 0.522595 0.753198
vt 0.530936 0.748327
vt 0.830671 0.321686
vt 0.831155 0.074534
vt 0.825670 0.074928
vt 0.837832 0.000000
vt 0.301338 0.672184
vt 0.295822 0.671905
vt 0.286702 0.589067
vt 0.836728 0.074376
vt 0.758338 0.750342
vt 0.746462 0.748900
vt 0.777364 0.664810
vt 0.838204 0.172239
vt 0.830420 0.172650
vt 0.777364 0.851090
vt 0.765623 0.846418
vt 0.778659 0.486075
vt 0.852208 0.424209
vt 0.861132 0.431595
vt 0.294175 0.769441
vt 0.286702 0.768811
vt 0.290167 0.671893
vt 0.898639 0.351886
vt 0.617580 0.551122
vt 0.616260 0.532564
vt 0.725530 0.095585
vt 0.717314 0.099096
vt 0.710516 0.086395
vt 0.625756 0.549146
vt 0.792366 0.013501
vt 0.299789 0.770435
vt 0.825670 0.177865
vt 0.898639 0.643639
vt 0.881910 0.664810
vt 0.786226 0.498556
vt 0.792366 0.266574
vt 0.779256 0.270916
vt 0.657097 0.745295
vt 0.643042 0.748327
vt 0.769651 0.275440
vt 0.709853 0.101931
vt 0.703462 0.088800
vt 0.126130 0.379113
vt 0.108267 0.374303
vt 0.118235 0.348886
vt 0.126434 0.351951
vt 0.299409 0.291256
vt 0.306748 0.302019
vt 0.439665 0.370568
vt 0.442186 0.348019
vt 0.842170 0.333471
vt 0.830671 0.323122
vt 0.835123 0.208074
vt 0.842170 0.212315
vt 0.094454 0.370251
vt 0.104687 0.344784
vt 0.672928 0.739465
vt 0.851403 0.316349
vt 0.842170 0.324362
vt 0.842170 0.211687
vt 0.847988 0.208074
vt 0.454124 0.369960
vt 0.456041 0.347439
vt 0.478823 0.123215
vt 0.472467 0.123137
vt 0.485956 0.000000
vt 0.473421 0.656880
vt 0.467503 0.657181
vt 0.459131 0.540464
vt 0.675811 0.120812
vt 0.666306 0.113233
vt 0.703462 -0.000000
vt 0.484681 0.122937
vt 0.473899 0.258689
vt 0.460483 0.258693
vt 0.154480 0.224656
vt 0.141280 0.245614
vt 0.031962 0.132414
vt 0.041249 0.124866
vt 0.483211 0.800573
vt 0.470447 0.801118
vt 0.571042 0.238967
vt 0.557186 0.217559
vt 0.462038 0.656969
vt 0.000000 0.013761
vt 0.485956 0.258224
vt 0.613119 0.342564
vt 0.599393 0.345933
vt 0.558987 0.243651
vt 0.821351 0.767819
vt 0.808278 0.763461
vt 0.805908 0.682519
vt 0.817621 0.685879
vt 0.153454 0.250054
vt 0.188604 0.082812
vt 0.184347 0.081612
vt 0.215784 -0.000000
vt 0.711827 0.337824
vt 0.707643 0.336939
vt 0.711827 0.275440
vt 0.796540 0.065694
vt 0.792366 0.064729
vt 0.825670 -0.000000
vt 0.520011 0.082197
vt 0.515811 0.083546
vt 0.485956 0.000000
vt 0.590581 0.348626
vt 0.549620 0.247209
vt 0.830987 0.772273
vt 0.830335 0.690246
vt 0.162955 0.253309
vt 0.803030 0.334287
vt 0.792366 0.338662
vt 0.792366 0.211738
vt 0.796239 0.209881
vt 0.162147 0.226749
vt 0.180179 0.080415
vt 0.170888 0.229843
vt 0.814637 0.328920
vt 0.800119 0.208074
vt 0.703462 0.335973
vt 0.524123 0.080851
vt 0.800722 0.066686
vt 0.459131 0.800801
vt 0.549544 0.219833
vt 0.807869 0.664810
vt 0.818940 0.667851
vt 0.825670 0.208074
vt 0.814515 0.206081
vt 0.540929 0.223213
vt 0.802067 0.203248
vt 0.218557 0.675730
vt 0.197822 0.673429
vt 0.221664 0.590485
vt 0.238354 0.591322
vt 0.461781 0.473007
vt 0.440981 0.474642
vt 0.093573 0.496954
vt 0.073576 0.490939
vt 0.438160 0.909567
vt 0.417366 0.910892
vt 0.830987 0.672040
vt 0.482582 0.471545
vt 0.000000 0.562762
vt 0.053496 0.485207
vt 0.045097 0.575669
vt 0.672928 0.715140
vt 0.705085 0.718250
vt 0.712295 0.752156
vt 0.676485 0.758329
vt 0.378435 1.000000
vt 0.396564 0.912072
vt 0.421762 0.998423
vt 0.686824 0.672938
vt 0.720734 0.664810
vt 0.177089 0.671020
vt 0.207256 0.589067
vt 0.387242 0.788847
vt 0.152293 0.746410
vt 0.194602 0.757337
vt 0.746462 0.678739
vt 0.741688 0.721612
vt 0.421050 0.540463
vt 0.464321 0.540253
vt 0.459131 0.995127
vt 0.485956 0.811569
vt 0.498773 0.748327
vt 0.518914 0.753230
vt 0.518914 0.831985
vt 0.746462 0.759550
vt 0.238354 0.751050
vt 0.090250 0.589067
s 1
f 4/1/1 5/2/1 1/3/1
f 5/4/2 2/5/2 1/6/2
f 3/7/3 4/8/3 1/9/3
f 19/10/4 23/11/4 5/2/4 4/1/4
f 23/12/5 6/13/5 2/5/5 5/4/5
f 6/14/6 11/15/6 3/16/6 2/17/6
f 2/17/7 3/16/7 1/18/7
f 22/19/8 20/20/8 9/21/8 8/22/8
f 21/23/9 19/24/9 11/25/9 10/26/9
f 24/27/10 22/28/10 8/29/10 7/30/10
f 20/31/11 21/23/11 10/26/11 9/32/11
f 11/25/12 19/24/12 4/8/12 3/7/12
f 23/12/13 24/27/13 7/30/13 6/13/13
f 18/33/14 16/34/14 12/35/14
f 16/36/15 14/37/15 12/38/15
f 15/39/16 13/40/16 12/41/16
f 17/42/17 18/33/17 12/35/17
f 6/13/18 7/30/18 18/33/18 17/42/18
f 11/43/19 6/44/19 17/45/19 13/46/19
f 9/32/20 10/26/20 15/39/20 14/47/20
f 7/30/21 8/29/21 16/34/21 18/33/21
f 14/47/22 15/39/22 12/41/22
f 13/48/23 17/49/23 12/50/23
f 96/51/24 55/52/24 20/20/24 22/19/24
f 94/53/25 95/54/25 24/27/25 23/12/25
f 55/55/26 60/56/26 21/23/26 20/31/26
f 54/57/27 94/58/27 23/11/27 19/10/27
f 10/26/28 11/25/28 13/40/28 15/39/28
f 8/22/29 9/21/29 14/59/29 16/60/29
f 29/61/30 27/62/30 25/63/30
f 28/64/31 29/65/31 25/66/31
f 26/67/32 28/68/32 25/69/32
f 53/70/33 47/71/33 27/62/33 29/61/33
f 47/72/34 46/73/34 26/74/34 27/75/34
f 46/76/35 52/77/35 28/68/35 26/67/35
f 27/75/36 26/74/36 25/78/36
f 32/79/37 31/80/37 30/81/37
f 31/82/38 33/83/38 30/84/38
f 33/85/39 34/86/39 30/87/39
f 44/88/40 45/89/40 31/90/40 32/91/40
f 45/92/41 51/93/41 33/83/41 31/82/41
f 51/94/42 50/95/42 34/96/42 33/97/42
f 34/98/43 32/79/43 30/81/43
f 41/99/44 39/100/44 35/101/44
f 38/102/45 37/103/45 35/104/45
f 40/105/46 41/99/46 35/101/46
f 39/106/47 38/107/47 35/108/47
f 46/109/48 47/110/48 41/99/48 40/105/48
f 45/111/49 44/112/49 38/107/49 39/106/49
f 42/113/50 46/76/50 40/114/50 36/115/50
f 43/116/51 42/117/52 36/118/52 37/103/53
f 37/103/54 36/118/54 35/104/54
f 36/115/55 40/114/55 35/119/55
f 53/120/56 51/93/56 45/92/56 47/121/56
f 50/122/57 49/123/57 43/124/57 44/88/57
f 52/125/58 53/120/58 29/65/58 28/64/58
f 50/122/59 44/88/59 32/91/59 34/126/59
f 44/127/60 43/116/51 37/103/53 38/102/60
f 47/110/61 45/128/61 39/100/61 41/99/61
f 55/129/62 96/130/62 52/77/62 48/131/62
f 59/132/63 56/133/63 49/123/63 50/122/63
f 97/134/64 100/135/64 51/93/64 53/120/64
f 56/133/65 55/136/65 48/137/65 49/123/65
f 49/123/66 48/137/66 42/138/66 43/124/66
f 48/131/67 52/77/67 46/76/67 42/113/67
f 100/139/68 101/140/69 57/141/69 59/142/68
f 100/139/70 59/142/70 50/143/70 51/144/70
f 99/145/71 94/58/71 54/57/71 61/146/71
f 95/147/72 96/148/72 22/149/72 24/150/72
f 101/140/69 98/151/73 58/152/73 57/141/69
f 96/153/74 97/134/74 53/120/74 52/125/74
f 60/154/75 54/155/75 19/156/75 21/157/75
f 98/158/76 99/145/76 61/146/76 58/159/76
f 63/160/77 76/161/77 62/162/77
f 67/163/78 66/164/78 62/165/78
f 76/166/79 67/167/79 62/168/79
f 64/169/80 63/160/80 62/162/80
f 69/170/81 70/171/81 76/161/81 63/160/81
f 89/172/82 84/173/82 64/174/82 65/175/82
f 85/176/83 90/177/83 66/164/83 67/163/83
f 70/178/84 85/179/84 67/167/84 76/166/84
f 66/164/85 65/180/85 62/165/85
f 65/175/86 64/174/86 62/181/86
f 58/159/87 61/146/87 69/170/87 84/182/87
f 54/183/88 60/184/88 71/185/88 70/178/88
f 56/186/89 59/187/89 75/188/89 73/189/89
f 57/141/90 58/152/90 84/173/90 74/190/90
f 83/191/91 93/192/92 68/193/93
f 79/194/94 80/195/94 68/196/94
f 82/197/95 77/198/95 68/199/95
f 78/200/96 79/201/97 68/202/96
f 60/184/98 55/203/98 72/204/98 71/185/98
f 61/146/99 54/57/99 70/171/99 69/170/99
f 55/205/100 56/186/100 73/189/100 72/206/100
f 59/142/101 57/141/101 74/190/101 75/207/101
f 88/208/102 91/209/102 83/210/102 80/211/102
f 92/212/103 89/172/103 81/213/103 93/192/103
f 91/214/104 92/212/104 93/192/104 83/191/104
f 87/215/105 88/208/105 80/211/105 79/216/105
f 93/192/92 81/213/106 68/193/93
f 80/195/107 83/217/107 68/196/107
f 77/218/108 78/200/96 68/202/96
f 81/219/109 82/197/109 68/199/109
f 90/177/110 89/220/110 65/180/110 66/164/110
f 70/178/111 71/185/111 86/221/111 85/179/111
f 73/189/112 75/188/112 91/222/112 88/223/112
f 74/190/113 84/173/113 89/172/113 92/212/113
f 85/179/114 86/221/114 78/200/114 77/218/114
f 89/224/115 90/225/115 82/197/115 81/219/115
f 86/221/116 87/226/116 79/201/116 78/200/116
f 90/225/117 85/227/117 77/198/117 82/197/117
f 114/228/118 108/229/118 97/230/118 96/231/118
f 109/232/119 118/233/119 94/58/119 99/145/119
f 112/234/120 105/235/121 101/140/121 100/139/120
f 118/236/122 103/237/123 95/54/124 94/53/122
f 71/185/125 72/204/125 87/226/125 86/221/125
f 84/182/126 69/170/126 63/160/126 64/169/126
f 72/206/127 73/189/127 88/223/127 87/238/127
f 75/207/128 74/190/128 92/212/128 91/214/128
f 116/239/129 109/232/129 99/145/129 98/158/129
f 115/240/130 116/241/130 105/235/130 104/242/130
f 110/243/131 102/244/131 104/245/131 111/246/131
f 113/247/132 114/248/132 103/237/132 106/249/132
f 113/250/131 106/251/131 102/244/131 110/243/131
f 108/229/133 112/252/133 100/253/133 97/230/133
f 103/237/123 114/248/134 96/254/134 95/54/124
f 111/255/135 112/252/135 108/229/135 110/256/135
f 106/251/131 117/257/131 107/258/131 102/244/131
f 117/259/136 118/233/136 109/232/136 107/260/136
f 106/249/137 103/237/137 118/236/137 117/261/137
f 107/262/138 109/263/138 116/264/138 115/265/138
f 102/244/131 107/258/131 115/266/131 104/245/131
f 110/256/139 108/229/139 114/228/139 113/267/139
f 104/242/140 105/235/140 112/234/140 111/268/140
f 105/235/121 116/241/141 98/151/141 101/140/121
